<?xml version="1.0" encoding="utf-8"?>
<!-- Generator: Adobe Illustrator 17.0.0, SVG Export Plug-In . SVG Version: 6.00 Build 0)  -->
<!DOCTYPE svg PUBLIC "-//W3C//DTD SVG 1.1//EN" "http://www.w3.org/Graphics/SVG/1.1/DTD/svg11.dtd">
<svg version="1.1" id="Layer_1" xmlns="http://www.w3.org/2000/svg" xmlns:xlink="http://www.w3.org/1999/xlink" x="0px" y="0px"
	 width="612px" height="792px" viewBox="0 0 612 792" enable-background="new 0 0 612 792" xml:space="preserve">
<g>
	<g>
		<g>
			<g>
				<circle fill="#3C5A9A" cx="306.401" cy="395.78" r="296.698"/>
			</g>
		</g>
	</g>
	<g>
		<g>
			<path fill="#355489" d="M516.291,186.425c115.863,115.863,115.867,303.72-0.005,419.592
				c-115.867,115.867-303.729,115.867-419.592,0L516.291,186.425z"/>
		</g>
	</g>
	<g>
		<path fill="#2F4F74" d="M601.178,429.192L386.561,214.575L275.14,326.001l6.638,6.638l-63.441,63.436l51.925,51.921l-6.83,6.83
			l56.217,56.217l-64.808,64.808l110.714,110.714C490.398,661.301,586.772,557.647,601.178,429.192z"/>
	</g>
	<path id="Facebook_3_" fill="#FFFFFF" d="M254.546,285.563c0,9.102,0,49.752,0,49.752h-36.452v60.845h36.452v180.798h74.881
		V396.165h50.248c0,0,4.708-29.176,6.985-61.07c-6.54,0-56.948,0-56.948,0s0-35.407,0-41.605c0-6.212,8.161-14.579,16.233-14.579
		c8.058,0,25.059,0,40.799,0c0-8.287,0-36.906,0-63.342c-21.016,0-44.927,0-55.472,0
		C252.691,215.568,254.546,276.465,254.546,285.563z"/>
</g>
</svg>
