<?xml version="1.0" encoding="utf-8"?>
<!-- Generator: Adobe Illustrator 17.0.0, SVG Export Plug-In . SVG Version: 6.00 Build 0)  -->
<!DOCTYPE svg PUBLIC "-//W3C//DTD SVG 1.1//EN" "http://www.w3.org/Graphics/SVG/1.1/DTD/svg11.dtd">
<svg version="1.1" id="Layer_1" xmlns="http://www.w3.org/2000/svg" xmlns:xlink="http://www.w3.org/1999/xlink" x="0px" y="0px"
	 width="612px" height="792px" viewBox="0 0 612 792" enable-background="new 0 0 612 792" xml:space="preserve">
<g>
	<circle fill="#547FA3" cx="306" cy="400.776" r="295.495"/>
	<path fill="#477594" d="M514.941,191.821c115.402,115.402,115.407,302.498,0,417.901c-115.393,115.393-302.498,115.398-417.896,0
		L514.941,191.821z"/>
	<g>
		<path fill="#436C83" d="M600.179,428.174L437.882,265.871l-10.783,10.783L405.94,255.49l-19.54,19.54l-17.79-17.79l-69.701,69.706
			l-74.19-74.195l-7.237,7.237l5.249,5.249l-3.261,3.261l-15.164-15.164l-7.526,7.526l6.999,6.999l-6.761,6.761l-13.125-13.125
			l-15.691,15.691l14.291,14.291l-14.291,14.291l4.96,4.96l-4.96,4.96l11.958,11.958l-24.206,24.206l59.031,59.031l-12.35,12.346
			l38.954,38.95l-72.226,72.212l160.823,160.823C473.01,683.628,587.087,570.549,600.179,428.174z"/>
	</g>
	<g>
		<g>
			<path fill="#FFFFFF" d="M457.795,360.894c-28.708,0-57.431,0-86.139,0c33.617,55.387-4.885,128.261-74.362,121.482
				c-42.444-4.139-81.277-49.755-64.056-101.601c1.082-3.28,3.392-6.859,5.151-10.307c1.67-3.28,4.488-7.125,3.681-9.574
				c-28.228,0-85.406,0-85.406,0v142.1c2.865,27.794,24.724,49.639,53.007,52.27h97.92h97.924
				c28.335-2.921,49.466-26.506,52.27-51.533C457.795,503.731,457.795,385.562,457.795,360.894z"/>
			<g>
				<path fill="#FFFFFF" d="M299.505,346.906c-11.571,1.39-17.79,3.891-23.567,7.363c-13.265,7.964-25.746,22.815-27.976,42.701
					c-4.512,40.144,24.938,67.737,58.9,67.737c27.057,0,59.973-19.33,59.637-59.633
					C366.193,368.368,336.911,342.408,299.505,346.906z M350.306,416.845c-4.932,20.315-27.477,35.679-50.801,32.394
					c-22.298-3.135-46.261-30.845-33.141-61.84c4.834-11.408,15.733-24.206,38.287-25.769
					C332.357,359.709,358.154,384.465,350.306,416.845z"/>
			</g>
		</g>
		<g>
			<path fill="#FFFFFF" d="M440.863,269.595c-8.118-8.118-21.406-15.565-36.075-16.932h-97.626h-0.271h-69.953v76.579H224.42
				v-76.579h-7.726v76.579h-12.528v-75.846c-2.771,0.527-5.487,1.255-8.095,2.156v73.695h-12.518V261.5
				c-3.985,2.459-7.498,5.235-10.367,8.095c-16.647,16.652-17.986,45.281-16.932,81.73h93.506c3.793-0.882,8.347-5.566,11.781-8.1
				c12.598-9.275,28.802-14.338,45.248-14.515h0.467c16.447,0.177,32.656,5.24,45.248,14.515c3.439,2.533,7.983,7.218,11.776,8.1
				h93.506C458.215,314.512,457.52,286.251,440.863,269.595z M428.023,319.266c0,4.292-3.476,7.768-7.759,7.768h-32.348
				c-4.283,0-7.759-3.476-7.759-7.768v-32.338c0-4.288,3.476-7.759,7.759-7.759h32.348c4.283,0,7.759,3.471,7.759,7.759V319.266z"/>
		</g>
	</g>
</g>
</svg>
