<?xml version="1.0" encoding="utf-8"?>
<!-- Generator: Adobe Illustrator 17.0.0, SVG Export Plug-In . SVG Version: 6.00 Build 0)  -->
<!DOCTYPE svg PUBLIC "-//W3C//DTD SVG 1.1//EN" "http://www.w3.org/Graphics/SVG/1.1/DTD/svg11.dtd">
<svg version="1.1" id="Layer_1" xmlns="http://www.w3.org/2000/svg" xmlns:xlink="http://www.w3.org/1999/xlink" x="0px" y="0px"
	 width="612px" height="792px" viewBox="0 0 612 792" enable-background="new 0 0 612 792" xml:space="preserve">
<path d="M567.701,554.851c0.287-0.884,0.482-1.817,0.482-2.799v-323.99c0-0.988-0.195-1.927-0.488-2.817
	c-0.043-0.122-0.067-0.244-0.116-0.366c-0.39-1.043-0.964-1.982-1.683-2.805c-0.049-0.055-0.055-0.122-0.104-0.177
	c-0.03-0.03-0.067-0.043-0.098-0.073c-0.768-0.817-1.677-1.476-2.695-1.97c-0.079-0.037-0.14-0.085-0.22-0.122
	c-0.964-0.433-2.012-0.677-3.116-0.75c-0.11-0.006-0.214-0.03-0.323-0.03c-0.104-0.006-0.195-0.03-0.299-0.03H51.623
	c-0.104,0-0.201,0.024-0.305,0.03c-0.098,0.006-0.195,0.024-0.293,0.03c-1.116,0.073-2.183,0.323-3.159,0.762
	c-0.061,0.024-0.11,0.067-0.171,0.091c-1.037,0.494-1.958,1.165-2.732,1.994c-0.03,0.03-0.067,0.037-0.098,0.067
	c-0.049,0.049-0.055,0.116-0.104,0.171c-0.72,0.823-1.299,1.769-1.689,2.811c-0.049,0.122-0.073,0.244-0.116,0.372
	c-0.293,0.89-0.488,1.83-0.488,2.817v323.996c0,1,0.201,1.951,0.5,2.854c0.043,0.122,0.067,0.238,0.11,0.36
	c0.396,1.049,0.982,1.994,1.708,2.817c0.043,0.049,0.055,0.11,0.098,0.159c0.037,0.043,0.085,0.067,0.128,0.11
	c0.299,0.311,0.628,0.585,0.97,0.854c0.152,0.116,0.287,0.256,0.445,0.366c0.402,0.281,0.835,0.506,1.281,0.714
	c0.11,0.049,0.207,0.128,0.317,0.171c1.104,0.47,2.317,0.738,3.592,0.738h507.412c1.275,0,2.488-0.262,3.592-0.738
	c0.171-0.073,0.329-0.183,0.494-0.268c0.378-0.189,0.756-0.384,1.104-0.622c0.183-0.128,0.348-0.293,0.524-0.433
	c0.311-0.25,0.616-0.5,0.884-0.787c0.049-0.049,0.104-0.085,0.152-0.134c0.049-0.055,0.061-0.128,0.11-0.183
	c0.714-0.817,1.287-1.756,1.677-2.793C567.628,555.114,567.659,554.986,567.701,554.851z M60.771,248.809l153.967,140.635
	L60.771,531.202V248.809z M376.339,382.553c-0.634,0.415-1.305,0.762-1.836,1.348c-0.201,0.22-0.268,0.506-0.445,0.738
	l-68.729,62.777L75.2,237.21h460.259L376.339,382.553z M228.3,401.83l70.857,64.722c1.75,1.598,3.958,2.397,6.172,2.397
	s4.421-0.799,6.166-2.397l69.979-63.917l153.942,140.276H75.065L228.3,401.83z M395.043,390.243l154.845-141.434v282.539
	L395.043,390.243z"/>
<path fill="#FDE4E9" d="M146.795,316.743c-7.922-11.598-18.735-20.935-26-33c-0.997-1.655-3.591-0.148-2.59,1.514
	c7.273,12.076,18.077,21.399,26,33C145.289,319.844,147.89,318.345,146.795,316.743z"/>
<path fill="#FFF4E0" d="M569.604,480.208c-0.04-3.467,0.285-7.077-0.146-10.521c0-0.002-0.001-0.004-0.001-0.006
	c0-0.005,0.001-0.009,0.001-0.015c-0.009-2.771-0.116-5.541-0.125-8.313c-0.001-0.34-0.098-0.616-0.251-0.837
	c-0.113-1.379-0.073-2.764-0.269-4.133c0.04-0.635,0.051-1.278,0.04-1.925c0.153-2.061,0.092-4.163,0.085-6.209
	c0-0.14-0.021-0.267-0.05-0.387c0.023-0.284,0.053-0.566,0.102-0.847c0.24-1.37,0.399-2.835,0.448-4.225
	c0.007-0.186-0.022-0.348-0.067-0.498c-0.007-1.331-0.172-2.611-0.245-3.939c-0.074-1.338,0.069-2.708,0.078-4.058
	c0.001-0.016,0.005-0.03,0.005-0.047c0.025-2.153,0.224-4.261-0.085-6.39c0.274-1.562,0.19-3.263-0.069-4.854
	c0.044-0.124,0.078-0.256,0.092-0.402c0.084-0.933,0.142-1.814,0.149-2.752c0.006-0.835-0.331-1.944-0.161-2.745
	c0.074-0.349,0.035-0.66-0.08-0.924c-0.007-1.713-0.083-3.422-0.106-5.134c0.048-0.136,0.084-0.281,0.094-0.445
	c0.115-2.013,0.322-4.203-0.063-6.21c-0.007-0.706-0.005-1.412-0.008-2.119c0.01-1.314,0.026-2.628,0.029-3.943
	c0.001-0.406-0.033-0.788-0.083-1.159c0.011-0.216,0.02-0.429,0.02-0.632v-2.708c0-0.151-0.024-0.286-0.057-0.413
	c0.18-1.699,0.11-3.411-0.028-5.116c0.101-0.182,0.169-0.394,0.19-0.638c0.176-2.044,0.057-4.08,0.044-6.127
	c0.113-1.395-0.159-2.804,0.027-4.183c0.03-0.22,0.023-0.435-0.009-0.642c0.019-0.683,0.042-1.365,0.042-2.048
	c0-0.669,0.074-1.436-0.051-2.124c0.031-0.735,0.147-1.476,0.218-2.209c0.068-0.706,0.08-1.414,0.107-2.122
	c0.06-0.161,0.101-0.34,0.101-0.544c0.004-1.477-0.142-2.935-0.188-4.404c0.027-0.162,0.037-0.332,0.01-0.516
	c-0.013-0.084-0.018-0.168-0.029-0.252c0-0.005,0-0.01,0-0.016c0-0.135-0.018-0.259-0.045-0.375
	c-0.159-1.357-0.209-2.724-0.336-4.08c0.147-0.731,0.177-1.421,0.121-2.074c0.057-0.385,0.093-0.78,0.073-1.204
	c-0.027-0.578-0.158-1.167-0.265-1.734c-0.039-0.208-0.054-0.414-0.066-0.62c0.048-0.15,0.082-0.311,0.08-0.496
	c-0.008-1.05,0.183-2.076,0.208-3.125c0.027-1.105-0.085-2.199-0.063-3.309c0.142-1.03,0.294-2.045,0.093-3.09
	c-0.299-1.556-0.031-3.381-0.051-4.976c-0.002-0.128-0.018-0.246-0.043-0.357c0.065-1.146,0.002-2.317,0.002-3.457
	c0-0.93,0.098-1.848,0.185-2.767c0.193-0.303,0.261-0.695,0.116-1.151c-0.01-0.031-0.013-0.064-0.023-0.095
	c0.015-0.272,0.034-0.545,0.035-0.819c0.002-0.416-0.141-0.737-0.358-0.974c-0.168-2.155,0.305-4.448,0.378-6.526
	c0.005-0.13-0.007-0.25-0.028-0.363c0.224-2.321,0.09-4.676,0.057-7.017c0.022-0.109,0.035-0.225,0.034-0.349
	c-0.026-2.893,0.082-5.764,0.063-8.646c-0.002-0.242-0.05-0.455-0.134-0.636c0.013-1.684,0.067-3.364,0.072-5.051
	c0-0.001,0-0.002,0-0.003c0.035-0.128,0.061-0.263,0.063-0.414c0.02-1.609-0.01-3.221-0.293-4.808
	c-0.261-1.466,0.051-2.9-0.281-4.383c-0.015-0.065-0.039-0.12-0.059-0.178c-0.044-0.845-0.084-1.779-0.278-2.593
	c-0.267-1.119,0.103-2.235,0.162-3.371c0.008-0.162-0.012-0.305-0.043-0.44c-0.301-2.494-0.097-5.036-0.061-7.518
	c0.003-0.186-0.03-0.348-0.077-0.498c0.409-3.099-0.079-6.46-0.089-9.585c-0.001-0.314-0.087-0.571-0.22-0.783
	c0.115-2.925,0.535-5.83,0.646-8.748c0.12-0.577,0.16-1.157-0.001-1.731c-0.049-0.176-0.133-0.333-0.236-0.474
	c-0.002-0.714-0.025-1.43-0.036-2.14c-0.029-1.775,0.24-3.419,0.357-5.175c0.028-0.417-0.096-0.739-0.299-0.975
	c0.01-0.821,0.061-1.634,0.143-2.494c0.146-1.522-0.133-3.052,0.103-4.57c0.026-0.166,0.02-0.32,0-0.468
	c0.009-0.105,0.006-0.217-0.009-0.337c-0.357-2.8-0.123-5.698-0.549-8.479c0.074-0.177,0.116-0.381,0.112-0.615
	c-0.047-2.768-0.87-5.607-2.923-7.513c-0.082-0.325-0.268-0.635-0.601-0.876c-4.593-3.317-12.143-2.233-17.507-1.767
	c-0.003,0-0.006,0.002-0.01,0.002c-5.467,0.008-11.013,0.31-16.505,0.227c-1.079-0.322-2.277-0.423-3.584-0.211
	c-0.163,0.026-0.329,0.04-0.492,0.064c-0.226-0.013-0.453-0.019-0.679-0.034c-0.168-0.067-0.358-0.11-0.575-0.11
	c-6.593,0-13.187-0.031-19.781-0.031c-0.12,0-0.232,0.012-0.338,0.033c-7.032,0.06-14.07,0.058-21.102,0.03
	c-0.165-0.07-0.349-0.118-0.56-0.126c-7.4-0.272-14.723,0.205-22.096,0.066c-0.2-0.104-0.435-0.167-0.717-0.16
	c-4.317,0.107-8.652,0.253-12.975,0.327c-0.71-0.214-1.494-0.333-2.359-0.327c-6.586,0.042-13.183,0.167-19.779,0.339
	c-3.386-0.124-6.824-0.347-10.113,0.214c-0.079-0.011-0.157-0.023-0.244-0.022c-7.393,0.074-15.362-1.468-22.689,0.018
	c-0.071-0.008-0.14-0.019-0.217-0.018c-6.085,0.112-12.176-0.026-18.264-0.087c-0.086-0.017-0.172-0.034-0.267-0.038
	c-5.92-0.246-11.883,0.075-17.813,0.063c-5.578-0.012-11.942,0.85-17.461,0.035c-0.218-0.134-0.488-0.211-0.82-0.191
	c-7.872,0.468-15.741-0.063-23.594-0.063c-0.191,0-0.357,0.036-0.511,0.089c-5.564-0.016-11.197-0.188-16.739,0.13
	c-0.299,0.017-0.546,0.11-0.752,0.244c-4.245-0.013-8.545-0.105-12.748-0.556c-0.342-0.037-0.62,0.031-0.839,0.164
	c-4.847,0.577-9.906,0.615-14.907,0.393c-0.959-0.466-2.091-0.734-3.41-0.713c-1.262,0.02-2.52,0.08-3.776,0.158
	c-0.218-0.177-0.48-0.313-0.818-0.345c-6.198-0.59-12.668,0.476-18.906,0.438c-0.046,0-0.086,0.009-0.13,0.012
	c-0.02-0.003-0.037-0.01-0.058-0.012c-3.034-0.328-6.257,0.094-9.32,0.094c-3.31,0-6.714-0.23-10.02,0.009
	c-0.108-0.034-0.223-0.06-0.347-0.072c-5.98-0.589-12.138-0.012-18.167-0.027c-0.184-0.084-0.399-0.132-0.646-0.13
	c-5.154,0.047-10.338,0.228-15.49,0.19c-0.208-0.12-0.457-0.195-0.76-0.19c-4.751,0.081-9.508,0.003-14.259,0.212
	c-0.078-0.011-0.155-0.024-0.241-0.025c-9.082-0.026-18.242-0.019-27.375-0.031c-0.229,0-0.428,0.044-0.602,0.118
	c-7.033,0.234-14.167-0.572-21.176-0.076c-0.126-0.029-0.26-0.047-0.409-0.042c-7.83,0.268-15.677,0.299-23.514,0.089
	c-0.19-0.094-0.413-0.152-0.674-0.152c-8.383,0-16.855,0.799-25.219,0.094c-0.169-0.014-0.317,0.003-0.456,0.033
	c-5.384,0.001-10.755,0.027-16.138,0.076c-3.188,0.029-7.455,0.045-9.998,2.267c-0.151,0.132-0.254,0.273-0.333,0.418
	c-0.752,0.59-1.387,1.185-1.94,2.04c-0.68,1.052-1.136,2.133-1.363,3.361c-0.012,0.064-0.011,0.123-0.016,0.185
	c-0.14,0.216-0.228,0.482-0.225,0.808c0.032,4.263-0.821,8.676-0.427,12.932c-0.087,0.561-0.172,1.123-0.234,1.695
	c-0.179,1.644,0.112,3.133,0.743,4.414c0.034,1.207,0.044,2.414,0.051,3.628c-0.37,0.233-0.635,0.633-0.634,1.206
	c0.055,19.134-1.175,38.083-1.125,57.172c-0.169,0.296-0.221,0.668-0.072,1.101c0.422,1.225,0.563,2.436,0.571,3.726
	c0.003,0.415,0.148,0.736,0.367,0.973c0.041,3.177,0.133,6.358,0.133,9.527c0,0.364,0.107,0.66,0.279,0.887
	c0.091,8.315,0.491,16.623,0.588,24.938c0.099,8.48-0.87,16.995-0.863,25.506c0,0.015-0.004,0.028-0.004,0.044
	c0,0.041,0.002,0.081,0.002,0.122c0,0.084-0.003,0.169-0.002,0.253c0,0.03,0.007,0.056,0.009,0.085
	c0.078,5.057,0.481,10.106-0.205,15.141c-0.416,3.056-0.409,6.718-0.159,9.807c0.784,9.677,0.39,19.755,0.355,29.467
	c-0.001,0.324,0.087,0.588,0.226,0.804c-0.061,5.215-0.396,10.358-0.601,15.571c-0.229,5.829,1.653,11.582,0.79,17.371
	c-1.74,11.662-0.46,24.029-0.418,35.801c-0.15,0.219-0.245,0.493-0.246,0.828c-0.025,9.015-0.352,18.024-0.502,27.037
	c-0.075,4.469-0.216,8.99,0.159,13.447c0.106,1.26,0.177,2.72,0.447,4.097c0.002,2.535,0.052,5.278,0.655,7.742
	c0.031,0.209,0.072,0.416,0.125,0.621c-0.008,0.073-0.016,0.147-0.008,0.223c0.026,0.278,0.066,0.55,0.133,0.821
	c-0.024-0.143-0.026-0.115-0.005,0.084c0.01,0.189,0.041,0.375,0.093,0.556c0.035,0.14,0.097,0.265,0.17,0.383
	c0.007,0.067,0,0.129,0.018,0.201c0.331,1.33,1.216,2.139,1.965,3.221c0.701,1.011,1.598,1.817,2.636,2.467
	c0.109,0.102,0.236,0.196,0.4,0.271c2.601,1.184,5.846,1.015,8.653,0.998c1.21,0.003,2.442,0.042,3.679,0.077
	c3.229,0.27,6.483,0.267,9.59,0.209c3.642-0.068,7.276-0.28,10.911-0.482c1.457,0.09,2.913,0.172,4.37,0.18
	c0.201,0.11,0.438,0.18,0.721,0.18c2.62,0,5.422-0.078,8.021-0.375c2.192-0.25,4.899,0.268,7.023-0.368
	c0.028,0.003,0.052,0.012,0.081,0.013c2.042,0.136,3.991,0.313,6.05,0.246c1.765-0.057,3.703-0.05,5.498-0.259
	c0.192,0.11,0.417,0.184,0.681,0.2c3.762,0.228,7.712-0.439,11.435,0.176c0.503,0.083,0.926-0.064,1.246-0.325
	c3.839-0.284,7.762,0.06,11.61-0.064c0.202,0.121,0.442,0.203,0.731,0.213c3.778,0.135,7.551,0.195,11.333,0.188
	c0.3-0.001,0.548-0.079,0.755-0.202c2.531-0.139,5.103-0.05,7.638-0.034c0.023,0.001,0.042,0.006,0.065,0.006h8.479
	c0.163,0,0.307-0.028,0.442-0.067c2.394-0.009,4.79-0.06,7.183-0.017c0.254,0.005,0.472-0.045,0.659-0.131
	c2.229,0.252,4.449,0.265,6.684,0.26c0.163,0.074,0.344,0.128,0.552,0.142c2.919,0.205,5.852,0.064,8.77,0.239
	c0.184,0.086,0.399,0.136,0.647,0.136c3.079,0,6.296,0.255,9.359-0.165c2.898,0.001,5.824,0.081,8.716-0.096
	c0.186,0.081,0.403,0.125,0.654,0.115c3.789-0.143,7.607,0.144,11.391-0.092c0.094,0.017,0.191,0.029,0.297,0.029h10.583
	c0.131,0,0.252-0.016,0.365-0.042h10.571c0.069,0.009,0.135,0.021,0.21,0.021h12.854c0.17,0,0.319-0.03,0.459-0.072
	c3.107,0.041,6.205,0.162,9.311,0.189c0.241,0.255,0.586,0.425,1.042,0.425c4.616,0,9.232,0.107,13.854,0.042
	c0.017,0,0.031-0.006,0.048-0.006c0.205,0.118,0.449,0.194,0.744,0.194c0.172,0,0.322-0.031,0.464-0.074
	c0.129,0.036,0.257,0.074,0.411,0.074c3.943,0.001,7.886,0.015,11.829,0.019c0.18,0.081,0.389,0.127,0.629,0.127
	c3.749,0,7.496-0.102,11.241-0.104c4.703,0.389,9.516,0.201,14.238,0.208c0.155,0,0.294-0.025,0.424-0.06
	c5.167,0.333,10.701,0.357,15.805-0.169c0.006-0.001,0.011-0.003,0.017-0.003c3.305-0.012,6.731-0.249,10.028,0.036
	c0.122,0.03,0.25,0.051,0.393,0.051c0.624,0,1.254,0.01,1.887,0.023c0.163,0.062,0.344,0.102,0.551,0.102
	c0.63,0,1.257-0.02,1.883-0.043c2.766,0.068,5.558,0.097,8.234-0.308c3.482,0.016,6.963,0.027,10.445,0.018
	c0.153,0,0.289-0.025,0.417-0.06c3.299-0.004,6.596,0.004,9.895,0.018c0.218,0.001,0.408-0.041,0.577-0.108
	c1.695-0.09,3.393-0.115,5.093-0.121c0.069,0.003,0.138,0.009,0.207,0.013c1.75,0.083,3.505,0.065,5.262,0.003
	c0.377,0.002,0.755,0.005,1.131,0.005c0.166,0,0.311-0.03,0.448-0.072c0.39-0.019,0.779-0.038,1.169-0.059
	c2.258-0.053,4.515-0.104,6.774-0.095c0.057,0.006,0.111,0.017,0.172,0.018c1.265,0.004,2.515-0.089,3.778-0.135
	c0.56-0.02,1.13,0.007,1.697,0.003c0.016,0.001,0.029,0.006,0.045,0.006c1.646,0.061,3.273-0.04,4.917-0.021
	c1.295,0.015,2.635,0.056,3.945-0.056c0.988,0.017,1.976,0.036,2.963,0.046c10.83,0.109,21.676,0.128,32.506,0.011
	c0.947-0.01,1.892-0.051,2.836-0.105c2.154,0.035,4.314,0.093,6.466,0.032c0.212,0.133,0.47,0.218,0.784,0.218
	c3.332,0,6.633-0.271,9.958-0.271c0.024,0,0.044-0.006,0.067-0.007c3.317-0.022,6.614-0.228,9.934-0.268
	c0.014,0,0.026,0.004,0.041,0.004c3.288-0.01,6.603,0.03,9.892-0.107c0.166,0.053,0.352,0.081,0.567,0.065
	c1.537-0.115,3.005,0.155,4.537,0.176c1.806,0.025,3.612,0.062,5.419,0.081c0.189,0.078,0.41,0.118,0.669,0.097
	c3.822-0.31,7.783-0.308,11.642-0.328c0.044,0.004,0.083,0.015,0.128,0.016c1.742,0.044,3.457,0.265,5.198,0.309
	c1.617,0.041,3.29-0.176,4.917-0.322c0.095,0.019,0.194,0.032,0.302,0.033c2.588,0.031,5.196-0.16,7.787-0.062
	c0.21,0.117,0.465,0.185,0.775,0.166c2.82-0.169,5.681-0.292,8.511-0.289c0.089,0.012,0.181,0.022,0.281,0.019
	c2.592-0.084,5.259-0.094,7.856-0.294c0.289,0.158,0.639,0.226,1.043,0.136c2.429-0.54,5.128-0.217,7.652-0.255
	c0.217,0.124,0.489,0.185,0.825,0.142c1.772-0.228,3.538-0.597,5.019-1.657c1.084-0.776,2.262-1.277,2.928-2.389
	c0.417-0.171,0.745-0.534,0.937-0.993c0.309-0.738,0.464-1.471,0.671-2.242c0.019-0.072,0.042-0.146,0.063-0.219
	c0.212-0.231,0.338-0.528,0.378-0.842c0.157-0.221,0.254-0.502,0.254-0.846c0-1.296,0.12-2.65-0.054-3.936
	c-0.096-0.715-0.318-1.336-0.321-2.064c-0.003-0.652,0.132-1.274,0.158-1.918c0.042-0.139,0.072-0.288,0.072-0.457
	c0-2.434,0.188-4.868,0.188-7.313c0-0.135-0.018-0.258-0.045-0.374c-0.004-1.898-0.013-3.795-0.016-5.693
	c0.109-0.197,0.18-0.428,0.185-0.704c0.043-1.999-0.152-4.009-0.22-6.018c0.121-0.207,0.199-0.454,0.199-0.753
	c0-0.99-0.274-1.901-0.25-2.875c0.035-1.439-0.001-2.874,0.083-4.313c0.018-0.305-0.048-0.556-0.162-0.764
	c0.014-1.666,0.142-3.337,0.129-5.002c0.041-0.152,0.066-0.316,0.053-0.505c-0.127-1.879-0.149-3.801-0.144-5.703
	c0.035-0.13,0.061-0.267,0.061-0.422c0.008-3.085-0.354-6.16-0.042-9.25c0.025-0.249-0.005-0.464-0.074-0.648
	c0.032-0.287,0.063-0.573,0.111-0.872c0.248-1.529,0.335-3.016,0.317-4.563c-0.001-0.123-0.015-0.238-0.039-0.346
	c0.005-2.495,0.027-4.991,0.035-7.486C569.578,480.528,569.606,480.378,569.604,480.208z M100.325,238.659
	c10.512,0.205,20.995,0.136,31.508-0.033c21.758-0.35,43.532-0.126,65.292-0.126c0.284,0,0.521-0.07,0.721-0.18
	c3.177,0.623,7.185-0.07,10.216-0.07c6.236,0,12.455-0.077,18.688-0.278c12.159-0.392,24.24,0.528,36.375,0.528
	c0.341,0,0.619-0.097,0.839-0.25c23.142-0.001,46.27-0.177,69.411-0.125c0.214,0,0.4-0.041,0.566-0.106
	c2.599,0.315,5.343-0.019,7.934-0.019c4.603,0,9.144,0.652,13.75,0.681c9.993,0.063,19.97,0.224,29.96,0.523
	c19.252,0.577,38.504-0.08,57.779-0.076c1.623,0.23,3.36-0.054,4.987-0.777c0.008-0.001,0.016-0.002,0.023-0.003
	c-2.041,0.971,1.895,0.562,2.713,0.617c2.616,0.177,5.258,0.206,7.879,0.333c3.571,0.173,7.122-0.233,10.674-0.638
	c7.16,0.458,14.51-0.174,21.661-0.14c8.276,0.039,16.551,0.168,24.825,0.354c5.307,0.12,10.743,0.655,16.096,0.444
	c-1.538,1.791-3.431,3.152-5.115,4.815c-2.388,2.358-4.543,4.858-7.075,7.086c-4.794,4.217-9.969,8.216-15.015,12.128
	c-0.747,0.579-1.354,1.219-1.909,1.889c-1.317,1.153-2.545,2.396-3.586,3.825c-0.465,0.639-0.858,1.255-1.253,1.839
	c-1.535,1.431-3.184,2.703-4.963,3.88c-4.292,2.84-8.706,6.76-12.366,10.406c-0.36,0.359-0.475,0.769-0.43,1.156
	c-3.789,3.295-7.68,6.515-11.444,9.885c-4.747,4.25-8.714,9.149-13.703,13.154c-9.57,7.681-19.851,14.727-27.548,24.431
	c-0.136,0.171-0.224,0.351-0.28,0.533c-1.706,1.821-2.943,4.062-4.981,5.598c-2.636,1.986-4.884,3.533-7.053,6.109
	c-2.358,2.801-4.36,5.107-7.552,6.993c-1.831,1.082-3.55,2.306-4.464,4.266c-0.101,0.068-0.2,0.148-0.294,0.251
	c-2.089,2.287-5.836,4.361-8.25,6.25c-4.074,3.187-8.084,6.387-12.086,9.662c-3.979,3.256-6.644,7.229-10.297,10.74
	c-3.442,3.309-6.81,5.637-9.727,9.526c-0.024,0.032-0.035,0.063-0.055,0.094c-1.28,1.031-2.224,2.234-3.299,3.536
	c-1.536,1.861-4.664,3.155-6.593,4.751c-4.046,3.349-8.957,6.668-12.318,10.69c-3.534,4.23-8.564,7.838-12.765,11.393
	c-4.022,3.403-9.436,6.166-12.345,10.661c-0.158,0.244-0.226,0.483-0.237,0.711c-1.693,1.372-3.349,2.805-5.009,4.182
	c-1.956,1.624-3.188,4.34-5.1,6.07c-0.03-0.047-0.054-0.096-0.09-0.142c-0.536-0.687-1.312-1.078-1.849-1.78
	c-0.811-1.061-1.737-2.097-2.837-2.867c-2.499-1.752-4.777-3.867-6.898-6.061c-0.131-0.135-0.27-0.228-0.411-0.301
	c-1.606-1.393-3.462-2.553-4.839-4.157c-1.63-1.9-3.561-3.646-5.25-5.5c-0.237-0.26-0.5-0.4-0.765-0.451
	c-1.634-1.348-3.269-2.68-4.86-4.091c-0.749-0.665-1.509-1.241-2.139-2.028c-0.664-0.83-1.577-1.399-2.337-2.124
	c-0.013-0.228-0.085-0.467-0.248-0.711c-0.735-1.094-1.688-2.036-2.526-3.054c-1.047-1.271-2.82-1.839-4-2.979
	c-1.061-1.026-2.311-1.831-3.307-2.922c-0.54-0.591-1.792-1.389-2.329-2.08c-0.06-0.236-0.184-0.471-0.405-0.685
	c-3.119-3.032-6.717-5.517-9.902-8.457c-0.047-0.275-0.193-0.55-0.473-0.793c-1.749-1.519-3.482-2.956-5.133-4.586
	c-0.589-0.581-1.045-1.189-1.714-1.698c-0.456-0.347-1.632-1.018-1.809-1.513c-0.161-0.45-0.462-0.74-0.813-0.893
	c-0.084-0.091-0.178-0.177-0.293-0.254c-1.058-0.71-2.059-1.599-3.04-2.502c-0.431-0.633-0.879-1.254-1.372-1.84
	c-1.076-1.279-2.439-2.296-3.908-3.201c-0.074-0.164-0.173-0.324-0.334-0.473c-1.546-1.429-2.926-3.017-4.603-4.296
	c-1.001-0.764-1.758-1.741-2.689-2.579c-0.852-0.767-1.776-1.365-2.39-2.363c-0.177-0.287-0.403-0.473-0.649-0.584
	c-0.543-0.581-1.03-1.202-1.669-1.72c-1.248-1.012-2.574-1.916-3.804-2.956c-2.099-1.775-5.079-3.67-6.759-5.926
	c-0.073-0.216-0.208-0.427-0.437-0.617c-0.033-0.027-0.064-0.052-0.097-0.079c-0.082-0.084-0.17-0.155-0.261-0.213
	c-1.345-1.105-2.641-2.099-4.078-3.139c-2.12-1.534-4.619-3.21-6.038-5.432c-0.185-0.29-0.421-0.476-0.676-0.584
	c-1.025-1.278-2.303-2.322-3.613-3.308c-0.896-0.674-1.69-1.374-2.446-2.203c-0.524-0.576-1.557-1.073-1.997-1.742
	c-0.037-0.29-0.177-0.582-0.461-0.841c-1.683-1.533-3.202-3.114-5-4.542c-2.077-1.648-3.745-3.187-5.417-5.25
	c-0.093-0.114-0.192-0.201-0.293-0.276c-3.591-3.865-8.157-6.763-11.692-10.699c-0.055-0.136-0.123-0.271-0.223-0.401
	c-0.614-0.794-1.377-1.341-2.189-1.92c-1.31-0.933-2.269-1.992-3.436-3.08c-1.241-1.158-2.565-2.098-3.736-3.355
	c-1.039-1.115-2.619-1.605-3.446-2.924c-0.25-0.399-0.594-0.608-0.956-0.677c-3.388-2.764-6.938-5.598-9.706-8.993
	c-0.025-0.03-0.044-0.062-0.072-0.092c-1.26-1.31-2.331-2.564-3.845-3.609c-0.196-0.135-0.382-0.287-0.573-0.431
	c-1.802-1.746-3.707-3.435-5.7-4.926c-0.907-0.9-1.748-1.861-2.76-2.629c-0.789-0.599-1.602-1.171-2.382-1.796
	c-0.664-0.532-2.319-1.471-2.479-2.404c-0.041-0.236-0.121-0.43-0.229-0.585c-0.058-0.14-0.132-0.278-0.24-0.41
	c-0.867-1.06-1.9-2.157-2.986-2.99c-0.795-0.609-1.757-0.978-2.308-1.801c-0.046-0.256-0.159-0.513-0.372-0.751
	c-2.153-2.399-4.964-4.262-7.518-6.243c-0.081-0.118-0.178-0.234-0.315-0.341c-1.871-1.462-3.622-2.997-5.215-4.76
	c-0.654-0.724-1.49-1.312-2.297-1.849c-0.448-0.298-1.427-0.825-1.727-1.439c0.036-0.371-0.103-0.756-0.511-1.076
	c-3.824-3.001-7.524-6.174-10.81-9.763c-0.073-0.153-0.171-0.304-0.315-0.445c-3.611-3.545-8.675-6.017-11.935-9.984
	C85.307,239.236,92.903,238.514,100.325,238.659z M75.042,516.439c-1.084,0.863-1.957,1.91-2.966,2.866
	c-0.992,0.94-2.066,1.81-3.055,2.749c-0.158,0.032-0.311,0.089-0.445,0.193c-1.068,0.824-1.945,1.807-2.927,2.725
	c-1.126,1.052-2.395,1.906-3.49,3.004c-0.164-8.45-0.507-16.897-0.534-25.35c-0.001-0.237-0.048-0.444-0.127-0.623
	c-0.098-6.611,0.122-13.221,0.015-19.84c-0.107-6.62,0.838-13.122,0.965-19.686c0.01-0.074,0.022-0.146,0.022-0.226
	c0-0.139-0.007-0.277-0.008-0.416c0.001-0.111,0.007-0.223,0.008-0.334c0-0.066-0.011-0.124-0.017-0.186
	c-0.05-6.358-0.573-12.668-0.573-19.02c0-7.079,0.526-14.164,0.701-21.24c0.123-0.27,0.166-0.591,0.086-0.953
	c-1.107-4.998-0.658-10.203-0.718-15.272c-0.064-5.433-0.497-10.807-0.284-16.246c0.392-10.017,0.583-20.065,0.926-30.083
	c0.064-0.151,0.113-0.314,0.129-0.501c0.213-2.55-0.471-5.047-0.541-7.627c-0.109-4.007-0.488-7.998-0.553-12.014
	c-0.01-0.626-0.01-1.258-0.017-1.887c0.165-2.026,0.301-4.054,0.289-6.101c-0.009-1.454-0.115-2.906-0.253-4.358
	c0.074-3.522,0.209-7.039,0.45-10.514c0.011-0.165-0.007-0.31-0.037-0.446c1.016-3.848,0.903-7.743,0.739-11.729
	c-0.25-6.076-0.045-12.129-0.604-18.196c-1.054-11.439-1.111-22.685-0.724-34.122c0.255-0.084,0.503-0.185,0.746-0.298
	c1.442,1.358,2.743,2.916,4.194,4.268c0.144,0.134,0.296,0.224,0.45,0.292c0.473,0.589,1.081,1.035,1.612,1.583
	c0.826,0.852,1.435,1.928,2.241,2.813c1.306,1.434,2.761,2.814,4.134,4.188c0.081,0.081,0.165,0.148,0.25,0.205
	c0.738,1.224,2.545,2.201,3.542,3.128c1.63,1.518,3.214,3.158,4.768,4.767c0.007,0.011,0.01,0.023,0.018,0.034
	c0.701,1.059,2.029,1.721,3.013,2.504c0.603,0.479,1.094,1.075,1.688,1.567c0.407,0.337,1.186,0.696,1.487,1.116
	c0.075,0.105,0.157,0.193,0.243,0.271c0.003,0.007,0.004,0.014,0.007,0.021c0.475,1.091,1.534,2.176,2.482,2.991
	c0.547,0.47,1.112,0.917,1.656,1.391c0.451,0.392,1.395,0.69,1.716,1.16c0.095,0.139,0.204,0.246,0.318,0.339
	c0.128,0.203,0.313,0.377,0.568,0.496c0.009,0.008,0.01,0.011,0.02,0.02c0.136,0.137,0.289,0.26,0.435,0.385
	c0.299,0.258,0.569,0.519,0.837,0.809c0.573,0.619,1.196,1.185,1.764,1.816c0.068,0.076,0.139,0.136,0.211,0.192
	c0.441,0.562,1.303,1.038,1.829,1.391c0.147,0.099,0.281,0.21,0.415,0.322c0.093,0.083,0.188,0.164,0.281,0.246
	c0.438,0.407,0.834,0.857,1.263,1.265c0.1,0.095,0.205,0.169,0.311,0.23c0.349,0.339,0.689,0.699,1.019,1.055
	c0.398,0.43,0.623,0.996,1.042,1.425c0.785,0.806,2,1.428,2.952,2.024c0.099,0.062,0.198,0.11,0.296,0.147
	c0.473,0.556,1.035,1.101,1.615,1.504c0.598,0.415,1.037,1.103,1.652,1.557c0.117,0.087,0.247,0.137,0.381,0.173
	c0.712,0.538,1.498,0.939,2.086,1.655c0.586,0.714,1.43,1.262,2.113,1.895c0.263,0.433,0.617,0.78,1.012,1.108
	c0.522,0.434,0.944,0.988,1.424,1.467c1.019,1.017,2.314,1.747,3.346,2.758c0.105,0.102,0.214,0.179,0.325,0.244
	c0.824,0.893,1.544,1.875,2.466,2.673c0.857,0.742,1.674,1.58,2.458,2.396c0.092,0.095,0.187,0.171,0.285,0.235
	c0.138,0.189,0.328,0.338,0.56,0.437c0.597,0.528,1.322,0.978,1.926,1.474c0.751,0.617,1.418,1.281,2.083,1.979
	c0.159,0.167,0.33,0.281,0.505,0.356c0.764,1.133,2.165,2.136,3.141,2.978c1.486,1.281,2.952,2.608,4.438,3.875
	c0.137,0.117,0.281,0.195,0.426,0.257c1.009,1.188,2.254,2.213,3.286,3.38c1.29,1.459,2.751,2.777,4.122,4.176
	c0.303,0.309,0.643,0.436,0.975,0.442c0.029,0.008,0.053,0.02,0.083,0.027c0.524,0.113,1.012,0.494,1.448,0.944
	c0.345,0.555,0.781,1.08,1.324,1.56c0.673,0.744,1.528,1.301,2.144,2.119c0.216,0.287,0.484,0.467,0.769,0.56
	c0.796,0.606,1.856,1.125,2.401,1.988c0.278,0.439,0.556,0.86,0.919,1.235c0.344,0.355,0.653,0.34,0.807,0.551
	c0.247,0.338,0.582,0.586,0.951,0.689c0.375,0.503,0.803,0.972,1.238,1.42c0.534,0.551,1.045,1.131,1.587,1.674
	c0.132,0.132,0.271,0.222,0.413,0.293c0.669,0.81,1.393,1.522,2.204,2.219c0.465,0.4,0.887,0.84,1.364,1.227
	c0.463,0.375,0.98,0.684,1.352,1.157c0.086,0.109,0.193,0.189,0.308,0.257c0.662,0.778,1.77,1.332,2.542,1.959
	c0.474,0.385,0.816,0.897,1.259,1.316c0.449,0.425,1.039,0.852,1.302,1.414c0.224,0.479,0.582,0.706,0.965,0.758
	c0.88,0.515,1.717,1.34,2.495,1.97c0.487,0.394,1.003,0.717,1.426,1.182c0.474,0.521,0.841,1.087,1.39,1.54
	c0.042,0.035,0.086,0.057,0.129,0.087c0.089,0.097,0.194,0.181,0.306,0.258c0.008,0.02,0.072,0.08,0.231,0.207
	c0.269,0.235,0.542,0.467,0.81,0.703c0.536,0.473,1.031,0.992,1.525,1.508c0.821,0.857,1.979,1.578,2.639,2.558
	c0.027,0.04,0.059,0.07,0.089,0.107c0.097,0.299,0.297,0.577,0.637,0.785c0.948,0.581,1.803,1.331,2.711,1.975
	c0.403,0.286,0.651,0.669,0.961,1.041c0.315,0.378,0.71,0.665,1.107,0.952c0.833,1.331,2.529,2.363,3.759,3.311
	c1.729,1.334,3.314,2.831,4.756,4.471c0.048,0.089,0.103,0.178,0.172,0.264c1.025,1.277,2.377,2.197,3.699,3.151
	c0.699,0.505,1.221,1.086,1.794,1.734c0.575,0.65,1.429,0.88,1.917,1.624c0.228,0.347,0.529,0.542,0.848,0.63
	c0.732,0.777,1.652,1.337,2.416,2.087c0.376,0.369,0.591,0.853,0.999,1.203c0.345,0.297,0.707,0.553,1.058,0.831
	c-1.854,2.165-4.055,4.24-6.336,5.942c-2.151,1.606-4.27,3.708-6.571,5.067c-0.399,0.235-0.611,0.564-0.687,0.912
	c-2.489,2.94-5.154,5.71-8.331,7.907c-2.681,1.855-4.512,4.141-6.88,6.323c-2.275,1.18-4.252,3.251-5.937,5.143
	c-1.694,1.903-3.633,3.493-5.457,5.253c-0.317,0.018-0.64,0.148-0.928,0.445c-4.727,4.89-10.583,8.793-14.917,14.083
	c-0.126,0.154-0.209,0.316-0.268,0.48c-1.99,2.357-4.477,4.496-6.866,6.384c-2.678,2.116-5.02,4.727-7.449,7.094
	c-0.107,0.104-0.186,0.214-0.253,0.325c-1.108,1.496-2.766,2.452-4.205,3.592c-1.478,1.171-2.797,2.507-4.25,3.708
	c-0.339,0.281-0.651,0.581-0.975,0.872c-0.67,0.382-1.321,0.906-1.934,1.593c-1.215,1.36-2.51,2.467-3.879,3.664
	c-1.028,0.899-1.68,1.971-2.472,2.941c-0.945,0.816-1.919,1.594-2.904,2.357c-1.297,0.862-2.549,1.855-3.732,2.941
	c-0.51,0.423-1.015,0.852-1.506,1.298c-3.31,3.014-6.2,6.427-9.516,9.417c-0.112,0.101-0.196,0.208-0.267,0.317
	c-1.598,0.972-2.476,2.759-3.871,4.033c-1.644,1.502-3.279,3.087-4.995,4.508c-3.567,2.634-6.377,6.231-10.105,8.657
	c-0.215,0.14-0.371,0.308-0.482,0.49c-1.659,1.078-3.138,2.79-4.545,4.083c-2.467,2.267-4.546,4.571-7.306,6.552
	C75.235,516.217,75.132,516.325,75.042,516.439z M523.521,542.479c-0.075,0.007-0.143,0.026-0.212,0.042
	c-0.151-0.008-0.306-0.018-0.458-0.027c-4.058-0.474-8.083-0.325-12.13-0.044c-3.203-0.196-6.427-0.242-9.637-0.242
	c-0.084,0-0.159,0.013-0.235,0.023c-0.005,0-0.01-0.002-0.015-0.002c-0.448-0.037-0.887,0.089-1.328,0.182
	c-1.998,0.05-4.006,0.226-5.985,0.005c-2.116-0.236-4.304-0.407-6.438-0.417c-0.148-0.001-0.28,0.023-0.404,0.055
	c-0.047-0.004-0.089-0.014-0.138-0.014c-0.279,0-0.513,0.067-0.711,0.174c-3.358-0.108-6.765-0.439-10.081-0.153
	c-0.036,0.003-0.067,0.014-0.102,0.019c-2.425-0.016-4.847-0.046-7.273-0.04c-0.184,0-0.343,0.037-0.49,0.088
	c-0.147,0.023-0.282,0.062-0.402,0.12h-8.295c-0.007,0-0.012,0.002-0.018,0.002c-0.015,0-0.028-0.003-0.044-0.002
	c-2.496,0.144-5.008,0.096-7.508,0.086c-0.12-0.021-0.247-0.033-0.388-0.023c-3.853,0.261-7.696-0.229-11.542-0.229
	c-0.212,0-0.397,0.041-0.563,0.106c-1.682,0.244-3.456,0.138-5.145,0.082c-2.201-0.073-4.367,0.1-6.563-0.146
	c-0.314-0.035-0.57,0.022-0.78,0.132c-4.04,0.037-8.21,0.312-12.199-0.153c-0.262-0.031-0.485,0.003-0.675,0.078
	c-5.188,0.374-10.73,0.352-15.919,0.033c-0.084-0.014-0.168-0.027-0.261-0.027c-6.283-0.033-12.569-0.01-18.854-0.021
	c-0.052,0-0.096,0.01-0.145,0.014c-0.029-0.003-0.054-0.012-0.084-0.014c-1.39-0.096-2.687,0.109-4.066,0.246
	c-1.643,0.164-3.365,0.046-5.017,0.087c-0.018,0-0.032,0.005-0.049,0.006c-0.066-0.003-0.129-0.011-0.201-0.006
	c-1.807,0.124-3.798-0.189-5.604-0.354c-2.39-0.219-4.907,0.242-7.313,0.229c-0.127-0.001-0.245,0.013-0.356,0.037
	c-5.157-0.156-10.289,0.123-15.436,0.047c-0.011,0-0.019,0.003-0.03,0.003c-0.004,0-0.008-0.002-0.012-0.003
	c-1.597-0.178-3.205,0.098-4.812,0.107c-1.767,0.01-3.541-0.128-5.313-0.128c-0.004,0-0.007,0.001-0.01,0.001
	c-0.118-0.009-0.24-0.007-0.367,0.011c-2.709,0.387-5.623,0.276-8.34-0.017c-0.153-0.038-0.32-0.057-0.511-0.037
	c-2.806,0.292-5.69,0.176-8.512,0.105c-0.131-0.036-0.27-0.063-0.426-0.063c-1.229-0.005-2.458-0.036-3.688-0.042
	c-1.012-0.004-2.305,0.235-3.289-0.009c-0.32-0.079-0.605-0.055-0.854,0.031c-0.016,0.001-0.029-0.003-0.045-0.002
	c-3.293,0.21-6.542-0.042-9.833-0.042c-0.134,0-0.257,0.017-0.372,0.044c-0.008,0-0.015-0.002-0.024-0.002
	c-4.161,0-8.447,0.284-12.607-0.039c-0.212-0.116-0.471-0.178-0.788-0.148c-5.74,0.544-11.653,0.359-17.417,0.25
	c-0.122-0.002-0.236,0.008-0.343,0.028c-5.561,0.314-11.411,0.446-16.967,0.044c-0.123-0.031-0.253-0.052-0.398-0.051
	c-4.733,0.012-9.501-0.092-14.229,0.083c-0.144,0.005-0.274,0.031-0.397,0.067c-0.385,0.05-0.779,0.088-1.174,0.127
	c-0.138-0.04-0.284-0.069-0.45-0.069c-3.338,0.004-6.633-0.229-9.979-0.229c-0.26,0-0.472,0.069-0.661,0.163
	c-0.194-0.048-0.406-0.061-0.634-0.026c-2.893,0.44-5.9,0.025-8.83,0.009c-2.247-0.012-5.063,0.305-7.247-0.092
	c-0.165-0.03-0.318-0.028-0.465-0.013c-3.471-0.007-6.942-0.077-10.413-0.083c-0.082,0-0.155,0.012-0.23,0.022
	c-3.249,0.225-6.593-0.036-9.853-0.043c-0.019,0-0.034,0.005-0.053,0.005c-0.011-0.001-0.02-0.004-0.031-0.005
	c-1.575-0.105-3.183,0.026-4.764,0c-1.742-0.028-3.458-0.271-5.215-0.271c-0.193,0-0.362,0.037-0.517,0.091
	c-3.753,0.238-7.583,0.105-11.338,0.118c-0.187,0.001-0.351,0.036-0.502,0.088c-3.645,0.013-7.283,0.187-10.919,0.181
	c-0.109-0.024-0.225-0.038-0.35-0.039c-3.444-0.022-6.886-0.132-10.333-0.146c-0.147-0.001-0.28,0.021-0.405,0.053
	c-3.392-0.104-6.755-0.282-10.158-0.282c-0.164,0-0.308,0.028-0.444,0.067c-3.012,0.06-6.021,0.079-9.035,0.079
	c-0.07,0-0.132,0.012-0.197,0.019c-3.039-0.006-6.077-0.057-9.116-0.061c-0.076,0-0.143,0.012-0.213,0.021H95.021
	c-0.087,0-0.166,0.013-0.245,0.024c-2.327,0.145-4.716,0.084-7.047,0.059c-0.112-0.001-0.216,0.01-0.314,0.028
	c-0.114,0.009-0.232,0.029-0.355,0.067c-1.672,0.515-4.216,0.017-5.963,0.014c-1.349-0.002-2.794-0.099-4.187-0.204
	c1.114-0.862,2.414-1.493,3.214-2.72c1.241-1.903,3.084-3.043,4.479-4.833c0.114-0.146,0.188-0.298,0.244-0.452
	c2.667-2.135,5.139-4.557,7.948-6.487c2.7-1.855,4.383-4.998,7.088-6.91c0.299-0.212,0.485-0.479,0.582-0.763
	c1.433-1.066,2.973-1.992,4.365-3.106c1.218-0.974,2.236-1.851,3.252-2.977c0.22-0.049,0.439-0.144,0.646-0.306
	c1.49-1.167,2.936-2.41,4.393-3.628c1.439-1.204,3.22-2.109,4.441-3.538c0.885-1.037,1.741-2.066,2.61-3.073
	c0.177-0.193,0.349-0.389,0.515-0.593c1.651-1.877,3.381-3.651,5.489-5.184c0.331-0.241,0.516-0.551,0.598-0.876
	c0.897-0.667,1.644-1.652,2.414-2.4c1.951-1.895,4.606-4.01,6.78-5.641c3.903-2.927,7.15-6.207,10.679-9.568
	c0.189-0.18,0.31-0.375,0.381-0.573c6.344-6.25,13.471-11.624,19.452-18.219c0.138-0.153,0.231-0.314,0.297-0.477
	c0.113-0.072,0.224-0.157,0.328-0.273c1.271-1.407,2.346-3.012,3.709-4.328c1.516-1.464,3.437-2.637,5.154-3.854
	c0.002-0.001,0.003-0.003,0.005-0.004c0.102-0.05,0.202-0.112,0.299-0.189c1.643-1.297,2.989-3.143,4.372-4.722
	c1.347-1.539,3.041-2.708,4.446-4.172c0.28-0.097,0.541-0.283,0.75-0.576c0.831-1.169,2.377-2.1,3.46-2.982
	c1.657-1.35,2.885-3.156,4.658-4.355c2.656-1.797,4.893-4.051,7.026-6.442c0.055-0.04,0.111-0.076,0.164-0.125
	c3.894-3.643,8.32-6.682,11.99-10.565c0.218-0.059,0.433-0.168,0.635-0.352c2.415-2.197,5.335-4.431,7.295-7.038
	c0.11-0.146,0.238-0.28,0.355-0.421c1.736-1.006,2.924-2.212,3.707-3.57c0.008-0.007,0.017-0.014,0.025-0.022
	c0.719-0.626,2.133-2.617,3.04-2.854c0.255-0.067,0.456-0.18,0.615-0.321c0.092,0.105,0.188,0.215,0.251,0.304
	c0.269,0.385,0.592,0.735,0.886,1.1c0.671,0.834,1.395,1.635,2.172,2.372c1.641,1.555,3.544,2.718,5.054,4.43
	c0.155,0.175,0.322,0.296,0.493,0.375c0.863,1.033,2.127,1.79,2.913,2.88c0.423,0.586,0.903,1.035,1.475,1.472
	c0.537,0.41,0.819,0.98,1.464,1.279c0.075,0.035,0.148,0.055,0.221,0.077c0.67,0.898,1.622,1.64,2.282,2.53
	c0.442,0.596,1.004,1.074,1.505,1.616c0.53,0.574,1.058,1.183,1.762,1.547c0.067,0.035,0.133,0.055,0.2,0.079
	c0.318,0.307,0.602,0.634,0.965,0.902c0.55,0.407,1.153,0.739,1.691,1.164c0.902,0.712,1.727,1.717,2.487,2.578
	c0.23,0.26,0.487,0.402,0.746,0.456c0.737,0.647,1.495,1.255,2.128,2.015c0.787,0.943,1.649,1.99,2.638,2.722
	c0.147,0.109,0.313,0.169,0.484,0.198c0.013,0.01,0.023,0.022,0.037,0.031c0.786,0.543,1.533,1.128,2.264,1.743
	c0.779,0.656,1.278,1.446,1.954,2.189c0.238,0.261,0.502,0.402,0.768,0.452c1.029,0.774,1.884,1.781,2.732,2.735
	c0.098,0.11,0.215,0.191,0.339,0.259c0.568,0.546,1.226,1.008,1.798,1.549c0.396,0.376,0.69,0.873,1.029,1.298
	c0.331,0.414,0.818,0.619,1.209,0.956c0.082,0.071,0.167,0.127,0.252,0.177c0.049,0.063,0.101,0.124,0.165,0.177
	c0.801,0.66,1.662,1.232,2.457,1.901c0.163,0.189,0.326,0.379,0.489,0.569c0.063,0.093,0.125,0.186,0.19,0.274
	c0.21,0.285,0.437,0.523,0.682,0.745c1.583,1.858,3.173,3.708,4.961,5.374c2.27,2.116,4.861,3.911,7.459,5.649
	c0.022,0.035,0.05,0.067,0.07,0.102c0.183,0.314,0.423,0.515,0.686,0.624c0.602,0.72,1.389,1.302,2.052,1.966
	c0.745,0.746,1.467,1.518,2.204,2.275c0.244,0.251,0.513,0.384,0.782,0.43c3.088,4.599,10.343,6.589,15.077,3.846
	c0.319-0.185,0.521-0.429,0.629-0.696c0.047-0.019,0.094-0.03,0.142-0.054c1.183-0.592,2.247-1.563,3.244-2.431
	c0.477-0.415,1.007-0.808,1.534-1.204c0.042-0.02,0.084-0.04,0.126-0.06c1.699-0.815,2.771-1.964,3.343-3.253
	c0.328-0.333,0.676-0.655,1.108-0.949c0.654-0.444,1.266-1.052,1.838-1.683c1.982-1.247,3.874-3.007,5.586-5.004
	c1.673-1.068,2.862-2.343,4.255-3.735c0.211-0.211,0.331-0.44,0.391-0.671c1.417-1.582,3.536-2.575,5.109-4.008
	c1.475-1.344,2.883-2.738,4.333-4.092c0.066-0.062,0.117-0.127,0.169-0.192c1.361-0.95,2.689-1.978,3.998-2.995
	c1.445-1.123,2.681-2.626,3.92-4.009c1.538-1.107,3.078-2.211,4.628-3.323c2.883-2.069,5.27-4.523,7.308-7.386
	c0.198-0.154,0.396-0.308,0.605-0.455c0.8-0.562,1.771-1.216,2.339-2.045c0.09-0.092,0.171-0.193,0.227-0.316
	c0.062-0.136,0.119-0.256,0.176-0.372c0.497-0.322,0.899-0.822,1.217-1.334c0.603-0.426,1.251-0.832,1.726-1.386
	c0.151-0.176,0.247-0.377,0.318-0.584c0.242-0.181,0.404-0.437,0.493-0.72c0.016-0.013,0.031-0.028,0.047-0.042
	c0.225-0.189,0.447-0.372,0.643-0.592c0.184-0.207,0.308-0.45,0.374-0.702c0.314-0.379,0.603-0.8,0.904-1.082
	c-0.087,0.055-0.056,0.029,0.095-0.078c0.193-0.146,0.383-0.293,0.565-0.451c0.105-0.091,0.518-0.369,0.192-0.26
	c0.203-0.068,0.385-0.171,0.542-0.3c0.223-0.068,0.442-0.197,0.641-0.419c0.633-0.704,1.444-1.174,2.178-1.766
	c0.871-0.701,1.656-1.57,2.476-2.331c0.635-0.59,1.278-1.184,1.867-1.82c0.609-0.658,1.158-1.627,1.967-2.057
	c0.11-0.059,0.206-0.124,0.29-0.196c0.158,0.157,0.331,0.308,0.54,0.466c0.766,0.582,1.363,1.578,2.014,2.292
	c0.583,0.639,1.361,1.142,1.99,1.747c0.805,0.776,1.572,1.433,2.453,2.122c0.157,0.123,0.321,0.202,0.487,0.259
	c0.03,0.026,0.054,0.055,0.087,0.08c0.559,0.421,0.996,1.088,1.552,1.544c0.601,0.493,0.951,1.246,1.495,1.804
	c0.971,0.997,1.751,2.309,3.037,2.944c0.066,0.032,0.13,0.051,0.195,0.073c1.703,1.697,3.406,3.346,5.272,4.88
	c0.149,0.123,0.306,0.204,0.465,0.263c0.471,0.612,1.054,1.161,1.557,1.727c0.866,0.974,2.028,1.782,2.978,2.677
	c0.226,0.213,0.471,0.333,0.717,0.383c0.033,0.032,0.058,0.065,0.096,0.096c1.429,1.169,2.906,2.223,4.085,3.657
	c1.318,1.605,2.709,3.122,4.311,4.447c0.098,0.081,0.2,0.146,0.303,0.199c0.507,0.536,1.116,0.986,1.612,1.539
	c0.77,0.858,1.752,1.458,2.455,2.396c0.165,0.22,0.368,0.4,0.59,0.53c0.993,1.09,2.048,2.126,3.24,2.992
	c0.668,0.485,1.184,1.15,1.693,1.79c0.545,0.686,1.468,1.099,2.149,1.637c0.04,0.031,0.081,0.051,0.122,0.078
	c0.452,0.647,1.094,1.238,1.531,1.815c0.749,0.988,1.732,1.755,2.493,2.732c0.111,0.142,0.253,0.24,0.409,0.31
	c0.612,0.966,1.928,1.529,2.778,2.19c0.864,0.672,1.682,1.376,2.488,2.114c0.505,0.638,1.149,1.186,1.681,1.8
	c0.692,0.798,1.578,1.452,2.352,2.169c0.136,0.126,0.279,0.211,0.424,0.278c0.77,0.712,1.562,1.416,2.367,2.076
	c1.191,0.977,2.211,2.069,3.449,3.005c0.17,0.128,0.338,0.204,0.502,0.248c0.3,0.262,0.581,0.649,0.879,0.872
	c0.489,0.365,0.955,0.699,1.385,1.135c1.019,1.032,2.266,1.824,3.388,2.74c0.204,0.166,0.419,0.265,0.636,0.317
	c0.491,0.555,1.085,1.036,1.611,1.54c0.706,0.676,1.255,1.496,1.982,2.164c0.183,0.168,0.378,0.278,0.575,0.341
	c0.714,0.705,1.336,1.601,1.933,2.363c0.752,0.959,1.664,1.796,2.471,2.712c0.022,0.025,0.046,0.042,0.069,0.065
	c3.263,4.173,6.432,7.795,11.038,10.595c5.288,3.214,9.003,8.171,13.109,12.729c0.835,0.927,1.738,1.551,2.663,1.931
	c2.058,2.634,5.543,4.179,8.059,6.28c3.534,2.951,6.907,6.084,10.477,8.986c0.131,0.143,0.262,0.29,0.396,0.427
	c0.427,0.434,0.915,0.804,1.391,1.182c0.524,0.415,1.185,0.743,1.673,1.181c0.169,0.152,0.348,0.252,0.529,0.317
	c0.111,0.092,0.25,0.163,0.398,0.227c0.017,0.012,0.034,0.024,0.05,0.036c-0.504-0.186-0.396-0.304-0.075,0.174
	c0.186,0.277,0.407,0.553,0.619,0.81c0.52,0.63,1.001,1.316,1.585,1.888c1.018,0.996,2.106,1.681,3.238,2.498
	c0.151,0.205,0.374,0.368,0.667,0.472c0.614,0.521,1.263,1.006,1.823,1.58c0.521,0.534,1.162,0.942,1.748,1.397
	c0.075,0.195,0.201,0.386,0.397,0.561c0.668,0.596,1.28,1.194,2.009,1.724c0.716,0.52,1.448,1.179,2.011,1.859
	c0.013,0.016,0.03,0.025,0.043,0.04c0.426,0.744,1.245,1.39,1.798,1.957c0.016,0.016,0.034,0.029,0.05,0.045
	c1.526,1.665,3.089,3.285,4.667,4.814C529.89,542.591,526.681,542.171,523.521,542.479z M549.316,255.888c0,0.001,0,0.003,0,0.004
	c-0.03-0.222-0.06-0.444-0.09-0.666c0.037,0.387,0.058,0.769,0.074,1.15c-0.059,1.643-0.112,3.287-0.112,4.936
	c0,0.339,0.096,0.615,0.248,0.835c-0.136,0.538-0.279,1.083-0.279,1.602c0,1.242,0.222,2.438,0.086,3.679
	c-0.254,2.322,0.087,4.788,0.039,7.133c-0.004,0.181,0.026,0.339,0.071,0.485c-0.019,0.091-0.036,0.184-0.04,0.285
	c-0.112,2.844-0.474,5.662-0.438,8.521c0.002,0.176,0.036,0.33,0.083,0.474c-0.093,2.632,0.103,5.264,0.021,7.922
	c-0.001,0.027,0.005,0.05,0.005,0.076c-0.027,0.112-0.045,0.232-0.047,0.362c-0.033,1.923-0.311,3.806-0.097,5.737
	c-0.01,0.06-0.025,0.116-0.028,0.18c-0.14,2.459,0.151,4.915,0.146,7.375c-0.001,0.298,0.076,0.545,0.197,0.751
	c0.068,2.402-0.052,4.772-0.072,7.186c-0.001,0.166,0.026,0.313,0.066,0.451c-0.161,2.339-0.061,4.683-0.032,7.028
	c-0.047,0.15-0.079,0.313-0.076,0.5c0.048,2.518,0.042,5.026,0.042,7.553c-0.235,1.021-0.187,2.095-0.187,3.135v5.188
	c0,0.13,0.016,0.25,0.041,0.363c-0.321,3.45-0.394,6.851-0.402,10.31c-0.038,0.133-0.065,0.273-0.066,0.432
	c-0.012,1.813-0.082,3.625-0.094,5.438c-0.005,0.746,0.077,1.478,0.172,2.209c-0.046,0.145-0.078,0.301-0.078,0.479
	c0,3.301,0.24,6.569,0.218,9.866c-0.038,0.137-0.064,0.282-0.061,0.446c0.048,3.188,0,6.373,0,9.563
	c0,0.183,0.034,0.342,0.082,0.491c0.056,2.385,0.199,4.849-0.067,7.206c-0.141,0.264-0.199,0.582-0.132,0.944
	c-0.006,0.039-0.01,0.078-0.017,0.116c-0.079,0.456,0.032,0.847,0.247,1.155c0.44,3.148-0.226,6.612,0.137,9.744
	c0.01,0.087,0.032,0.165,0.053,0.244c-0.024,3.326-0.136,6.646-0.143,9.975c-0.065,0.161-0.111,0.338-0.118,0.541
	c-0.265,7.409-0.389,14.826-0.375,22.25c0,0.018,0.004,0.032,0.005,0.049c-0.001,0.012-0.004,0.022-0.005,0.034
	c-0.065,1.354-0.046,2.724,0.001,4.1c-0.095,4.046-0.177,8.093-0.229,12.139c-0.004,0.023-0.006,0.047-0.01,0.07
	c-0.044,0.225-0.041,0.434-0.001,0.625c-0.021,1.769-0.027,3.538-0.035,5.308c-0.015,0.744-0.023,1.483-0.013,2.227
	c0,0.247-0.005,0.493-0.005,0.74c0,0.311,0.017,0.611,0.047,0.903c0.05,1.332,0.125,2.652,0.256,3.928
	c-0.247,1.715-0.024,3.539-0.13,5.258c-0.217,3.514,0.052,6.986,0.161,10.496c0.001,0.046,0.012,0.086,0.017,0.13
	c-0.537,5.43-0.107,10.635-0.1,16.079c0,0.123,0.013,0.238,0.036,0.345c0.51,4.342-0.705,8.898-0.244,13.28
	c0.009,0.084,0.029,0.16,0.049,0.237c0.018,3.825,0.433,7.604,0.409,11.429c-0.002,0.269,0.059,0.497,0.158,0.692
	c0.276,3.696-0.247,7.435-0.319,11.144c-1.941-1.431-3.9-2.818-5.466-4.688c-1.528-1.824-4.314-2.656-5.734-4.509
	c-0.104-0.135-0.222-0.239-0.345-0.328c-0.065-0.23-0.195-0.457-0.421-0.663c-0.529-0.482-0.9-1.092-1.469-1.531
	c-0.719-0.556-1.458-0.979-2.072-1.663c-0.388-0.432-0.839-0.887-1.326-1.305c-0.921-1.004-1.892-1.96-2.967-2.82
	c-0.781-0.625-1.547-1.265-2.323-1.895c-0.246-0.231-0.505-0.441-0.775-0.633c-0.208-0.17-0.416-0.339-0.624-0.509
	c-0.073-0.157-0.167-0.312-0.319-0.456c-1.046-0.995-2.275-1.886-3.25-2.938c-0.557-0.6-1.017-1.284-1.613-1.846
	c-0.47-0.443-1.089-0.753-1.664-1.079c-0.071-0.133-0.159-0.264-0.285-0.387c-0.908-0.889-1.893-1.779-2.862-2.604
	c-0.45-0.383-0.895-0.766-1.266-1.228c-0.392-0.489-1.008-0.688-1.488-1.059c-0.065-0.05-0.136-0.085-0.208-0.118
	c-0.015-0.012-0.026-0.027-0.042-0.039c-1.356-1.013-2.272-2.317-3.29-3.627c-0.424-0.546-1.113-0.951-1.687-1.316
	c-0.814-0.518-1.332-1.127-2.032-1.76c-0.208-0.188-0.432-0.297-0.657-0.354c-1.675-2.167-4.001-3.675-5.937-5.615
	c-0.123-0.124-0.254-0.21-0.387-0.28c-0.037-0.053-0.068-0.106-0.113-0.158c-1.08-1.226-2.412-2.166-3.625-3.25
	c-0.649-0.58-1.321-1.143-2-1.688c-0.633-0.507-1.398-0.883-1.765-1.634c-0.138-0.282-0.324-0.47-0.531-0.593
	c-0.129-0.276-0.337-0.527-0.601-0.726c-0.287-0.218-0.503-0.6-0.759-0.859c-0.463-0.469-1-0.896-1.522-1.297
	c-0.815-0.626-1.478-1.389-2.438-1.813c-0.025-0.011-0.05-0.017-0.075-0.027c-0.098-0.114-0.206-0.222-0.331-0.316
	c0.197,0.151,0.153,0.073-0.134-0.234c-0.235-0.22-0.462-0.43-0.672-0.674c-0.332-0.387-0.689-0.75-1.05-1.109
	c-0.646-0.645-1.417-1.14-2.059-1.779c-0.114-0.113-0.234-0.194-0.355-0.262c-0.019-0.016-0.031-0.034-0.051-0.051
	c-0.331-0.269-0.57-0.728-0.845-1.063c-0.444-0.542-1.007-0.964-1.546-1.406c-0.456-0.374-0.946-0.701-1.444-1.017
	c-0.578-0.367-0.958-0.922-1.478-1.359c-0.009-0.007-0.018-0.012-0.027-0.019c-0.033-0.046-0.059-0.093-0.098-0.138
	c-0.755-0.867-1.533-1.697-2.447-2.399c-0.761-0.585-1.533-1.076-2.1-1.86c-0.123-0.17-0.269-0.316-0.43-0.434
	c-0.009-0.008-0.014-0.018-0.024-0.026c-0.763-0.647-1.507-1.193-2.19-1.922c-0.35-0.374-0.728-0.721-1.133-1.034
	c-0.163-0.126-0.41-0.26-0.565-0.404c-0.116-0.372-0.359-0.643-0.665-0.806c-0.034-0.049-0.062-0.099-0.103-0.147
	c-0.749-0.869-1.802-1.519-2.639-2.315c-0.902-0.858-1.851-1.66-2.87-2.378c-0.698-0.794-1.295-1.565-2.185-2.182
	c-0.9-0.624-1.87-1.431-2.706-2.145c-0.852-0.728-1.736-1.606-2.546-2.396c-0.497-0.485-0.847-0.989-1.367-1.361
	c-0.094-0.302-0.287-0.585-0.616-0.802c-0.707-0.467-1.419-1.037-2.076-1.581c-0.336-0.278-0.661-0.559-0.964-0.872
	c-0.1-0.103-0.205-0.201-0.307-0.303c-0.035-0.035-0.041-0.041-0.061-0.061c-0.081-0.447-0.355-0.752-0.704-0.923
	c-0.073-0.106-0.158-0.209-0.272-0.307c-1.346-1.152-2.67-2.259-3.915-3.525c-1.411-1.434-3.09-2.556-4.536-3.938
	c-0.066-0.163-0.159-0.323-0.298-0.475c-2.836-3.094-7.083-5.096-9.484-8.634c-0.124-0.182-0.269-0.319-0.424-0.425
	c-0.075-0.347-0.274-0.678-0.645-0.926c-0.394-0.263-0.637-0.792-1.031-1.094c-0.494-0.378-1.008-0.709-1.473-1.123
	c-0.749-0.665-1.492-1.279-2.217-1.958c-0.491-0.741-1.02-1.447-1.659-2.027c-1.607-1.461-3.42-2.74-5.258-3.981
	c-0.018-0.017-0.031-0.039-0.049-0.056c-0.378-0.342-0.823-0.575-1.189-0.922c-0.36-0.341-0.745-0.639-1.203-0.815
	c-0.062-0.117-0.171-0.316-0.106-0.158c-0.237-0.574-0.682-1.015-1.26-1.091c-1.061-1.007-2.135-2.005-3.126-3.071
	c-0.618-0.665-1.457-1.063-2.012-1.787c-0.558-0.728-1.118-1.364-1.979-1.728c-0.101-0.043-0.201-0.072-0.3-0.093
	c-0.975-0.936-1.889-1.961-2.807-2.944c-0.824-0.882-1.869-2.171-3.1-2.557c-0.021-0.021-0.039-0.045-0.06-0.066
	c-0.337-0.332-0.522-0.755-0.789-1.145c-0.162-0.236-0.328-0.418-0.548-0.593c-0.019-0.015-0.039-0.03-0.058-0.045
	c1.558-1.38,3.385-2.506,5-3.822c0.715-0.583,1.117-1.554,1.809-2.191c0.72-0.663,1.442-1.326,2.164-1.986
	c0.168-0.057,0.334-0.139,0.492-0.264c1.407-1.116,2.589-2.386,4.095-3.411c1.452-0.987,2.237-2.688,3.561-3.808
	c0.236-0.2,0.372-0.423,0.441-0.649c3.832-3.115,7.402-6.525,11.219-9.661c0.321-0.016,0.647-0.152,0.933-0.471
	c1.365-1.516,3.076-2.635,4.469-4.156c0.773-0.844,1.472-1.68,2.344-2.438c0.765-0.665,1.139-1.676,1.938-2.313
	c0.185-0.147,0.313-0.308,0.397-0.474c1.261-0.866,2.55-1.697,3.714-2.682c0.827-0.699,1.417-1.646,2.273-2.349
	c0.92-0.756,1.594-1.685,2.439-2.503c1.635-1.526,3.681-2.618,5.212-4.237c0.772-0.816,1.584-1.417,2.415-2.164
	c0.716-0.644,1.281-1.418,1.975-2.078c0.09-0.063,0.178-0.139,0.262-0.231c0.903-0.979,2.06-1.643,2.941-2.655
	c0.601-0.69,1.579-1.253,2.161-2.007c0.136-0.068,0.271-0.153,0.398-0.276c1.949-1.879,4.328-3.335,6.125-5.344
	c2.032-2.271,4.398-4.199,6.375-6.563c0.015-0.018,0.023-0.037,0.037-0.054c0.484-0.32,0.982-0.633,1.412-1.019
	c0.619-0.556,1.064-1.268,1.645-1.865c0.957-0.983,2.133-1.674,3.156-2.563c0.036-0.032,0.061-0.066,0.093-0.098
	c0.024-0.016,0.048-0.025,0.072-0.042c1.06-0.767,2.09-1.57,3.159-2.326c0.504-0.356,1.007-0.716,1.402-1.189
	c0.353-0.11,0.672-0.355,0.915-0.679c0.146-0.195,0.247-0.402,0.344-0.625c0.102-0.151,0.106-0.165,0.011-0.043
	c0.134-0.172,0.269-0.342,0.396-0.52c0.013-0.019,0.019-0.04,0.031-0.059c1.196-0.852,2.107-1.956,3.305-2.858
	c0.748-0.564,1.304-1.307,1.929-1.998c0.23-0.255,0.447-0.462,0.64-0.689c0.157-0.077,0.311-0.185,0.454-0.342
	c1.058-1.163,2.181-2.194,3.313-3.281c0.568-0.547,1.153-1.076,1.719-1.625c0.181-0.204,0.382-0.386,0.603-0.547
	c-0.01,0.007,0.83-0.497,0.454-0.38c0.411-0.128,0.685-0.374,0.851-0.669c0.801-1.019,2.065-1.84,3.076-2.647
	c0.471-0.376,0.922-0.78,1.362-1.192c0.457-0.242,0.845-0.545,1.248-0.909c0.074-0.073,0.149-0.145,0.227-0.214
	c0.016-0.015,0.412-0.345,0.147-0.146c0.267-0.201,0.498-0.418,0.689-0.68c0.104-0.064,0.201-0.14,0.281-0.241
	c0.237-0.298,0.536-0.522,0.813-0.781c0.215-0.202,0.367-0.471,0.503-0.743c0.637-0.188,1.23-0.556,1.684-1.038
	c0.193-0.204,0.318-0.45,0.381-0.707c0.896-0.662,1.714-1.573,2.4-2.418c0.538-0.662,1.144-1.194,1.854-1.662
	c0.513-0.338,1.086-0.551,1.477-1.044c0.422-0.029,0.842-0.214,1.153-0.629c1.015-1.349,2.294-2.45,3.592-3.508
	c0.694-0.566,1.262-1.308,1.861-1.97c0.345-0.382,0.703-0.729,1.094-1.063c0.018-0.015,0.05-0.039,0.082-0.062
	c0.277-0.056,0.498-0.185,0.672-0.355c0.207-0.074,0.408-0.206,0.59-0.427c0.917-1.115,1.915-1.978,2.969-2.969
	c1.167-1.098,1.776-2.526,3.321-3.234c0.08-0.037,0.145-0.081,0.212-0.124c0.16-0.067,0.318-0.16,0.467-0.298
	c1.063-0.985,2.202-1.811,3.159-2.917c0.423-0.488,0.772-1.044,1.139-1.575c0.263-0.38,0.611-0.667,0.896-1.019
	c0.308-0.095,0.583-0.321,0.76-0.731c0.206-0.476,1.511-0.768,1.922-1.165c0.982-0.95,2.186-1.565,3.094-2.587
	c1.627-1.832,3.917-2.925,5.406-4.851c0.058-0.075,0.1-0.152,0.142-0.23c0.036-0.028,0.074-0.052,0.108-0.083
	c0.484-0.444,0.697-0.96,1.088-1.413c0.207-0.24,0.437-0.453,0.669-0.663c0.738-0.513,1.437-0.902,2.019-1.507
	c-0.003,0.947-0.023,1.893-0.05,2.838C549.21,253.96,549.212,254.897,549.316,255.888z"/>
</svg>
