<?xml version="1.0" encoding="utf-8"?>
<!-- Generator: Adobe Illustrator 17.0.0, SVG Export Plug-In . SVG Version: 6.00 Build 0)  -->
<!DOCTYPE svg PUBLIC "-//W3C//DTD SVG 1.1//EN" "http://www.w3.org/Graphics/SVG/1.1/DTD/svg11.dtd">
<svg version="1.1" id="Layer_1" xmlns="http://www.w3.org/2000/svg" xmlns:xlink="http://www.w3.org/1999/xlink" x="0px" y="0px"
	 width="612px" height="792px" viewBox="0 0 612 792" enable-background="new 0 0 612 792" xml:space="preserve">
<g>
	<path d="M507.106,157.922c-21.503-21.589-50.148-33.505-80.658-33.548h-0.14c-62.851,0-114.054,51.093-114.163,113.974
		c0,20.912,5.72,41.311,16.563,59.112c0.177,0.439,0.384,0.86,0.628,1.268l86.952,146.028c1.634,2.738,4.574,4.427,7.763,4.464
		h0.098c3.147,0,6.08-1.628,7.763-4.293l91.142-145.784c0.335-0.543,0.61-1.104,0.817-1.689
		c10.794-17.911,16.49-38.201,16.49-58.801C540.404,208.167,528.597,179.492,507.106,157.922z M522.06,238.647
		c0,17.814-5.098,35.377-14.746,50.788c-0.323,0.518-0.585,1.067-0.793,1.628l-82.183,131.453l-78.439-131.733
		c-0.214-0.561-0.482-1.104-0.811-1.61c-9.581-15.222-14.649-32.798-14.649-50.813c0.085-52.794,43.08-95.697,95.862-95.697h0.122
		c25.614,0.043,49.666,10.044,67.717,28.163c18.045,18.119,27.962,42.195,27.919,67.809
		C522.06,238.641,522.06,238.641,522.06,238.647z"/>
	<path d="M426.338,281.202c-0.03,0-0.061,0-0.098,0c-12.88,0-25.01-5.031-34.127-14.167c-9.129-9.148-14.142-21.296-14.118-34.219
		c0.012-12.88,5.05-24.998,14.185-34.109c9.123-9.093,21.235-14.1,34.121-14.1c0.012,0,0.03,0,0.049,0
		c26.62,0.031,48.263,21.729,48.239,48.373l0,0c-0.012,12.898-5.05,25.022-14.185,34.133
		C451.287,276.202,439.194,281.202,426.338,281.202z M426.295,202.904c-8.001,0-15.533,3.11-21.198,8.764
		c-5.672,5.653-8.8,13.179-8.806,21.18c-0.012,8.032,3.104,15.582,8.776,21.265c5.659,5.672,13.191,8.794,21.192,8.794
		c0.018,0,0.037,0,0.061,0c8.001,0,15.508-3.104,21.168-8.745c5.672-5.653,8.8-13.185,8.806-21.192
		c0.012-16.551-13.429-30.041-29.968-30.059C426.32,202.904,426.308,202.904,426.295,202.904z M465.442,232.976h0.061H465.442z"/>
	<path d="M575.69,578.985H27.693c-3.074,0-5.94-1.543-7.635-4.11c-1.689-2.561-1.982-5.806-0.775-8.635l99.68-233.218
		c1.439-3.366,4.751-5.556,8.41-5.556h235.206c5.056,0,9.148,4.092,9.148,9.148s-4.092,9.148-9.148,9.148H133.41L41.549,560.683
		h520.279L472.802,352.42c-1.988-4.647,0.171-10.02,4.818-12.008c4.629-1.982,10.02,0.165,12.008,4.818l94.471,221.003
		c1.208,2.83,0.915,6.074-0.774,8.635C581.63,577.442,578.763,578.985,575.69,578.985z"/>
	<path d="M425.228,577.344c-4.586,0-8.544-3.44-9.075-8.111c-0.055-0.451-5.897-45.458-68.913-56.149
		c-5.861-0.994-15.21-1.903-26.04-2.946c-59.637-5.769-114.035-13.258-124.525-41.146c-6.769-17.991,3.122-31.706,11.063-42.726
		c8.696-12.063,11.563-17.332,7.123-24.9c-2.811-4.793-11.764-8.696-20.424-12.471c-16.954-7.391-40.177-17.515-40.299-45.263
		c-0.024-5.056,4.055-9.166,9.105-9.19c0.012,0,0.03,0,0.043,0c5.037,0,9.123,4.068,9.148,9.105
		c0.067,14.758,11.124,20.643,29.321,28.577c11.343,4.946,23.071,10.056,28.895,19.991c10.886,18.564-0.067,33.761-8.062,44.854
		c-7.501,10.404-11.941,17.204-8.782,25.583c7.349,19.533,76.115,26.181,109.163,29.382c11.179,1.079,20.832,2.013,27.333,3.116
		c76.426,12.971,83.756,69.706,84.031,72.114c0.573,5.019-3.031,9.55-8.05,10.123C425.93,577.326,425.576,577.344,425.228,577.344z"
		/>
</g>
<path fill="#FEEFA1" d="M427.651,556.976c-3.347-6.597-5.211-13.686-11.51-18.189c-6.011-4.297-8.727-10.619-13.046-16.453
	c-4.432-5.987-10.164-10.094-16.871-13.206c-3.182-1.477-6.502-2.832-9.862-3.841c-0.678-0.204-1.37-0.348-2.069-0.463
	c-1.098-1.094-2.475-1.949-3.821-2.533c-2.344-1.017-4.767-1.301-7.275-1.654c-2.958-0.416-5.297-1.942-8.035-2.96
	c-5.89-2.191-12.181-2.815-18.378-3.58c-4.654-0.574-9.106-0.892-13.648-0.741c-0.645-0.33-1.412-0.524-2.303-0.525
	c-6.616-0.006-12.699-0.717-19.172-2.06c-6.201-1.286-12.593-0.884-18.79-2.074c-5.528-1.061-10.823-1.748-16.426-2.234
	c-2.181-0.189-4.406-0.467-6.604-0.894c-0.315-0.11-0.656-0.185-1.024-0.222c-3.2-0.697-6.319-1.729-9.126-3.334
	c-1.674-0.957-3.295-0.854-4.6-0.158c-0.027-0.011-0.055-0.024-0.082-0.035c-5.255-2.245-10.636-4.145-15.971-6.186
	c-5.063-1.936-11.376-4.021-14.708-8.568c-3.6-4.913-1.1-10.372-1.496-15.902c-0.082-1.14-0.471-2.075-1.046-2.811
	c0.442-0.959,0.866-1.862,1.23-2.663c3.478-7.657,10.116-13.565,15.352-19.99c0.451-0.553,0.757-1.134,0.952-1.721
	c1.662-0.966,2.305-2.446,2.226-3.935c0.263-0.353,0.519-0.712,0.763-1.08c2.593-3.915,2.717-8.454,2.085-12.929
	c-0.567-4.018-2.3-7.384-3.911-11.06c-1.543-3.52-4.638-6.111-6.667-9.333c-0.998-1.585-2.439-2.278-3.896-2.336
	c-5.988-4.61-13.857-7.637-19.924-10.283C188.822,368.15,170.636,360.88,171,346c0.019-0.768-0.11-1.442-0.346-2.027
	c0.228-0.851,0.228-1.745-0.005-2.587c7.477,0.321,15.022-0.052,22.476-0.052h32.542c6.449,0,6.449-10,0-10h-30.625
	c-9.394,0-18.961,0.607-28.35-0.169c-0.604-1.757-2.107-3.165-4.524-3.164c-3.19,0.001-6.385,0.096-9.58,0.181
	c-0.45-0.236-0.977-0.41-1.591-0.502c-5.903-0.882-11.88-0.82-17.829-0.512c-3.732,0.193-7.232-0.1-10.524,2.016
	c-4.009,2.577-5.24,7.75-6.569,11.988c-0.919,2.933-2.062,5.602-3.548,8.287c-1.33,2.402-1.714,5.239-3.177,7.518
	c-0.787,1.227-0.952,2.43-0.703,3.498c-0.152,0.483-0.212,0.996-0.147,1.525c0.022,0.131,0.022,0.265,0.031,0.397
	c-0.04,0.082-0.081,0.163-0.121,0.227c-0.169,0.27-0.364,0.527-0.551,0.784c-0.905,1.245-1.665,2.577-2.014,4.096
	c-0.173,0.754-0.168,1.511-0.034,2.233c-0.275,0.462-0.548,0.925-0.796,1.406c-0.005,0.01-0.009,0.021-0.014,0.031
	c-1.941,0.496-3.55,2.048-3.502,4.659c0.025,1.353,0.19,2.853,0.396,4.423c-0.382,0.328-0.736,0.73-1.046,1.22
	c-1.326,2.097-2.195,4.318-2.986,6.664c-1.086,3.219-2.822,6.023-4.369,9.027c-2.82,5.479-4.894,11.493-6.966,17.356
	c-0.154,0.241-0.318,0.476-0.467,0.72c-1.012,1.657-1.797,5.09-3.419,6.19c-1.033,0.7-1.67,1.593-1.996,2.55
	c-0.447,0.558-0.803,1.168-1.246,1.807c-0.906,1.306-0.89,2.966-0.288,4.385c-2.12,3.247-3.007,6.696-4.534,10.211
	c-1.724,3.967-3.551,7.799-5.067,11.87c-0.547,1.468-0.389,2.73,0.19,3.717c-0.139,0.195-0.272,0.401-0.394,0.63
	c-1.631,3.07-4.011,5.604-6.072,8.386c-2.422,3.27-3.662,7.499-4.932,11.308c-1.408,4.224-1.548,8.58-3.348,12.714
	c-1.729,3.969-3.596,7.748-4.402,12.036c-0.118,0.629-0.125,1.221-0.046,1.773c-0.582,0.832-1.154,1.672-1.7,2.533
	c-0.464,0.732-0.705,1.456-0.775,2.148c-2.513,2.011-4.176,5.124-5.46,7.976c-2.083,4.628-2.04,10.159-4.765,14.376
	c-0.769,1.191-0.954,2.361-0.737,3.405c-3.586,6.343-6.728,12.828-9.313,19.671c-0.975,0.659-1.743,1.672-2.204,2.868
	c-1.298,3.368-2.51,7.166-5.089,9.794c-1.358,1.384-1.665,2.99-1.313,4.435c-0.007,0.117-0.028,0.231-0.026,0.35
	c0.084,5.288,6.52,8.45,11.25,8.25c1.122-0.048,2.157-0.442,3-1.069c10.224,1.064,20.555-1.346,30.778-1.296
	c6.389,0.031,12.764,0.316,19.154,0.116c6.911-0.216,13.774-1.309,20.693-1.593c13.13-0.539,26.359-0.388,39.5-0.407
	c6.448-0.01,6.449-10.01,0-10c-10.042,0.015-20.083,0.235-30.125,0.25c-4.588,0.007-9.143,0.281-13.691,0.615
	c-0.467-2.002-2.027-3.716-4.684-3.74c-10.372-0.093-20.625,0.294-30.984,0.547C58.847,562.174,53.67,562.016,48.5,562
	c-2.501-0.008-4.926-0.457-7.364-0.938c0.07-0.193,0.133-0.394,0.185-0.607c0.392-1.613,1.569-2.889,2-4.5
	c0.774-2.896,1.483-5.589,2.686-8.356c2.466-5.671,5.033-11.305,7.56-16.95c0.809-1.807,0.539-3.543-0.295-4.903
	c1.492-2.454,2.98-4.911,4.473-7.365c2.61-4.289,5.351-8.05,6.004-13.13c0.164-1.278-0.11-2.292-0.653-3.053
	c1.324-1.894,2.615-3.815,3.785-5.84c2.801-4.846,4.957-10.012,7.611-14.935c2.635-4.887,2.975-10.551,5.684-15.381
	c2.406-4.289,4.853-7.897,5.323-12.916c0.111-1.183-0.153-2.133-0.637-2.877c0.953-0.347,1.823-1.055,2.454-2.225
	c1.759-3.257,3.399-6.56,5.063-9.858c1.071-0.369,1.996-1.078,2.468-2.142c0.734-1.654,1.471-3.309,2.108-5.003
	c0.098-0.145,0.185-0.294,0.251-0.45c0.149-0.352,0.307-0.7,0.445-1.055c0.174-0.322,0.291-0.668,0.4-1.017c0,0,0,0,0,0
	c0.275-0.558,0.533-1.123,0.705-1.731c0.43-1.524,0.046-3.101-0.85-4.304c0.868-4.038,4.095-7.732,5.742-11.439
	c0.889-2.001,2.057-3.858,3-5.833c0.174-0.365,0.316-0.733,0.446-1.101c1.187-0.239,2.295-0.981,3.054-2.399
	c2.307-4.31,2.562-9.013,2.285-13.774c0.793-0.546,1.462-1.341,1.886-2.42c0.819-2.086,1.46-4.264,2.497-6.255
	c1.093-2.099,2.601-3.957,3.336-6.245c1.249-3.887,4.36-6.764,5-10.833c0.114-0.725,0.082-1.399-0.055-2.021
	c2.374-4.22,4.784-8.422,6.885-12.785c0.505-1.05,0.631-2.075,0.488-3.018c0.023-0.057,0.056-0.111,0.076-0.169
	c0.201-0.048,0.405-0.107,0.614-0.182c3.211-1.158,6.487-0.719,9.837-0.655c3.958,0.076,7.924,0.007,11.884,0.002
	c-0.152,0.497-0.231,1.051-0.217,1.665c0.152,6.629,1.771,12.74,5.085,18.494c3.75,6.512,9.574,9.632,15.891,13.157
	c3.155,1.76,6.07,3.968,9.164,5.836c3.702,2.234,7.861,3.824,11.805,5.572c3.643,1.615,7.436,2.91,10.603,5.394
	c2.735,2.145,5.263,4.501,8.094,6.532c0.104,0.075,0.208,0.136,0.311,0.201c0.53,1.442,1.114,2.861,1.779,4.298
	c0.563,1.216,0.917,2.519,1.132,3.856c-0.551,0.568-0.972,1.338-1.187,2.332c-1.513,6.999-7.029,14.61-11.345,20.13
	c-1.832,2.343-3.19,4.924-4.347,7.614c-0.046,0.077-0.094,0.148-0.138,0.229c-1.88,3.474-4.125,8.122-5.095,12.564
	c-1.278,4.43-1.696,8.98-0.164,13.846c1.446,4.595,2.794,8.025,5.804,11.927c3.117,4.041,6.302,5.459,10.806,7.475
	c3.942,1.764,7.245,4.715,11.334,6.407c5.028,2.081,10.215,3.569,15.51,4.802c2.862,0.666,5.751,1.307,8.657,1.895
	c0.037,0.03,0.07,0.063,0.108,0.092c2.876,2.219,6.434,2.591,9.93,3.026c4.063,0.506,7.793,2.567,11.739,3.597
	c9.242,2.414,20.137,3.375,29.658,3.319c9.664-0.057,19.391,2.398,29.061,3.153c4.588,0.358,9.171,0.498,13.76,0.782
	c5.559,0.345,11.176,2.63,16.713,3.459c1.716,0.257,3.164-0.273,4.237-1.195c1.285,0.436,2.539,0.928,3.735,1.525
	c0.677,0.338,1.342,0.508,1.983,0.555c0.44,0.863,0.943,1.708,1.672,2.497c1.919,2.077,5.175,2.798,7.706,3.786
	c2.894,1.129,4.99-0.526,5.728-2.804c4.226,2.287,7.981,5.218,10.962,9.246c3.816,5.155,6.301,11.566,11.376,15.667
	c2.894,2.339,5.484,3.808,7.396,7.144c1.931,3.371,3.126,7.151,4.884,10.615C421.935,567.776,430.561,562.713,427.651,556.976z"/>
<path fill="#FFF7E1" d="M145.083,333.184c-0.037-2.471-1.647-4.92-4.833-4.934c-4.875-0.02-12.716,0.073-16.473,3.714
	c-2.134,2.068-3.759,4.621-5.437,7.063c-0.915,1.332-1.645,2.746-2.345,4.198c-0.403,0.838-2.225,3.114-0.831,2.206
	c-1.304,0.849-1.994,2.001-2.219,3.209c-0.229,0.265-0.424,0.563-0.574,0.897c-1.089,2.431-1.953,4.947-2.881,7.441
	c-0.69,0.82-1.097,1.837-1.149,2.932c-1.083,2.577-2.567,5.332-2.246,8.129c-1.114,0.736-1.934,1.83-2.618,3.018
	c-0.422,0.732-0.797,1.679-1.078,2.456c-0.248,0.687-0.333,0.799-0.188,0.651c-1.401,1.411-1.947,3.479-1.206,5.371
	c-0.679,3.187-2.1,6.1-3.381,9.075c-0.828,0.365-1.591,0.993-2.19,1.948c-3.058,4.868-5.044,10.332-7.115,15.694
	c-1.208,3.126-2.639,6.168-3.888,9.278c-0.986,2.457-2.567,4.419-3.167,7.055c-0.149,0.654-0.166,1.264-0.096,1.833
	c-4.422,10.247-8.691,20.805-13.567,30.723c-0.157,0.32-0.274,0.636-0.363,0.95c-0.565,0.764-0.923,1.691-1.023,2.635
	c-0.381,0.638-0.64,1.393-0.713,2.272c-0.021,0.248-1.479,2.463-1.655,2.921c-0.66,1.724-1.737,3.255-2.427,4.977
	c-0.927,2.314-1.508,4.719-2.237,7.094c-1.439,3.375-2.82,6.774-4.169,10.179c-2.378,6.002,7.297,8.58,9.643,2.658
	c0.04-0.101,0.084-0.201,0.124-0.302c2.499,0.884,5.482,0.055,6.126-3.281c1.106-5.727,6.008-9.603,8.246-14.806
	c0.298-0.692,0.477-1.408,0.544-2.116c4.047-7.343,7.157-15.247,10.539-22.884c0.222-0.5,0.366-0.988,0.452-1.461
	c0.58-0.861,1.159-1.724,1.714-2.607c2.55-4.052,3.117-11.52,5.468-14.253c1.069-1.243,1.401-2.631,1.238-3.929
	c0.831-2.064,1.464-4.172,2.822-6.021c1.281-1.745,1.879-3.815,2.455-5.871c0.718-2.562,2.286-4.806,3.433-7.191
	c0.373-0.776,0.536-1.538,0.54-2.264c0.621-1.328,1.224-2.666,1.824-4.011c2.175-4.876,4.674-9.603,6.39-14.67
	c0.263-0.778,0.336-1.498,0.261-2.151c0.787-1.18,1.53-2.394,2.391-3.519c0.656-0.856,0.841-1.907,0.701-2.943
	c0.349-0.715,0.692-1.369,1.08-1.764c1.152-1.172,1.549-2.505,1.43-3.764c2.076-3.342,2.905-7.559,4.883-10.935
	c0.526-0.898,0.74-1.78,0.72-2.608c0.781-1.433,1.609-2.84,2.405-4.267c0.724-1.3,0.999-3.301,1.906-4.363
	c0.676-0.792,1.065-1.633,1.228-2.468c1.554-0.159,3.146-0.129,4.69-0.371c1.703-0.267,3.399-0.92,5.108-1.009
	C149.161,342.699,149.753,334.537,145.083,333.184z"/>
</svg>
