<?xml version="1.0" encoding="utf-8"?>
<!-- Generator: Adobe Illustrator 17.0.0, SVG Export Plug-In . SVG Version: 6.00 Build 0)  -->
<!DOCTYPE svg PUBLIC "-//W3C//DTD SVG 1.1//EN" "http://www.w3.org/Graphics/SVG/1.1/DTD/svg11.dtd">
<svg version="1.1" id="Layer_1" xmlns="http://www.w3.org/2000/svg" xmlns:xlink="http://www.w3.org/1999/xlink" x="0px" y="0px"
	 width="612px" height="792px" viewBox="0 0 612 792" enable-background="new 0 0 612 792" xml:space="preserve">
<path d="M240.975,612.258c24.241,13.575,48.117,20.393,70.358,20.393c18.619-0.006,36.091-4.787,51.642-14.386l57.32-35.359
	c2.067-1.275,3.543-3.311,4.104-5.678c0.561-2.36,0.152-4.848-1.122-6.916l-49.684-80.524c-1.275-2.061-3.318-3.537-5.678-4.098
	c-2.378-0.555-4.854-0.152-6.916,1.122l-57.753,35.646c-8.879,5.476-20.271,7.227-31.23,4.818
	c-10.959-2.415-20.314-8.77-25.668-17.454l-78.493-127.208c-11.349-18.393-5.629-42.592,12.752-53.941c0,0,0.006,0,0.006-0.006
	l59.942-37.006c4.299-2.653,5.629-8.288,2.976-12.587l-49.69-80.506c-2.653-4.299-8.294-5.647-12.587-2.982l-59.893,36.969
	c-66.754,41.201-64.412,149.358,5.708,263.021C159.213,547.693,199.67,589.133,240.975,612.258z M130.977,248.118l52.105-32.157
	l40.085,64.937l-52.16,32.2c-0.012,0.006-0.018,0.012-0.024,0.018c-26.943,16.655-35.335,52.13-18.692,79.097l78.493,127.202
	c7.934,12.874,21.534,22.247,37.304,25.723c15.557,3.409,31.883,0.829,44.769-7.123l49.965-30.84l40.079,64.949l-49.538,30.559
	c-36.176,22.32-76.225,8.843-103.448-6.397c-38.634-21.637-76.737-60.814-107.278-110.321
	C78.176,381.473,73.383,283.666,130.977,248.118z"/>
<path d="M302.362,294.619c29.602,1.75,55.801,16.96,71.889,41.738c15.38,23.613,19.082,52.551,10.148,79.396
	c-1.598,4.793,0.994,9.977,5.787,11.563c0.957,0.323,1.927,0.47,2.891,0.47c3.836,0,7.404-2.421,8.678-6.257
	c10.709-32.163,6.269-66.851-12.166-95.148c-18.991-29.26-51.203-47.964-86.147-50.032c-5.092-0.213-9.373,3.549-9.672,8.593
	C293.471,289.99,297.319,294.32,302.362,294.619z"/>
<path d="M315.169,226.719c47.934,5.507,90.483,31.81,116.737,72.151c25.437,39.11,32.645,87.263,19.771,132.117
	c-1.397,4.86,1.409,9.922,6.263,11.313c0.848,0.244,1.689,0.36,2.531,0.36c3.97,0,7.635-2.616,8.782-6.623
	c14.337-49.953,6.312-103.589-22.016-147.144c-29.236-44.927-76.609-74.212-129.983-80.347c-4.921-0.579-9.55,3.025-10.13,8.044
	C306.546,221.608,310.144,226.139,315.169,226.719z"/>
<path d="M327.677,166.917c63.662,8.849,120.268,44.83,155.31,98.722c34.328,52.733,44.623,117.865,28.254,178.691
	c-1.317,4.879,1.579,9.898,6.458,11.209c0.793,0.213,1.598,0.317,2.384,0.317c4.031,0,7.733-2.683,8.825-6.769
	c17.722-65.839,6.574-136.344-30.584-193.425c-37.932-58.332-99.21-97.283-168.117-106.864c-4.982-0.665-9.629,2.793-10.319,7.8
	C319.188,161.599,322.676,166.222,327.677,166.917z"/>
<path fill="#FFF4E0" d="M420.506,564.27c0.043-0.293-0.011-0.615-0.211-0.943c-1.525-2.511-2.475-5.287-4.083-7.75
	c-1.897-2.904-4.135-5.562-5.977-8.52c-1.454-2.335-2.611-4.651-4.355-6.793c-1.915-2.354-2.638-5.293-4.332-7.7
	c-0.024-0.079-0.048-0.157-0.086-0.237c-1.924-4.003-4.43-7.577-6.997-11.186c-3.016-4.241-5.221-9.017-8.003-13.397
	c-2.009-3.164-4.429-5.931-6.25-9.25c-1.555-2.835-3.524-5.979-5.542-8.588c-0.011-0.239-0.095-0.491-0.291-0.745
	c-5.412-7.019-14.099-3.569-19.847,0.926c-8.893,6.953-19.945,10.926-28.906,17.86c-0.126,0.04-0.254,0.093-0.383,0.176
	c-4.802,3.087-9.791,5.886-14.714,8.776c-3.415,2.005-8.924,3.836-11.075,7.345c-0.036,0.058-0.057,0.116-0.084,0.174
	c-0.959,0.22-1.951,0.39-2.829,0.841c-0.73,0.376-1.326,0.853-2.055,1.092c-0.216-0.044-0.455-0.041-0.719,0.036
	c-9.568,2.826-17.409,1.276-26.702-1.583c-0.003-0.001-0.006-0.002-0.009-0.003c-0.144-0.122-0.287-0.244-0.437-0.36
	c-2.185-1.686-5.361-2.762-7.833-4.083c-1.17-0.625-2.359-1.207-3.553-1.78c-3.242-2.476-7.528-6.409-9.11-10.206
	c0.054-0.298,0.016-0.626-0.16-0.962c-3.064-5.853-7.057-10.98-10.277-16.719c-2.868-5.111-7.583-9.994-9.655-15.423
	c-0.152-0.398-0.416-0.663-0.724-0.823c-2.637-5.292-5.546-10.377-8.51-15.488c-0.177-0.492-0.417-0.966-0.737-1.409
	c-1.097-1.516-1.765-3.247-2.75-4.833c-0.289-0.466-0.612-0.917-0.954-1.358c-0.717-1.113-1.493-2.185-2.399-3.17
	c-2.19-2.382-5.797-7.013-6.843-10.085c-0.078-0.228-0.191-0.415-0.329-0.565c-0.896-1.747-2.212-2.531-3.381-4.222
	c-1.492-2.159-2.002-4.916-3.639-6.955c-1.775-2.211-2.421-4.875-4.33-7.046c-2.475-2.815-3.015-6.686-5.139-9.737
	c-0.151-0.216-0.331-0.37-0.525-0.478c-2.503-4.654-5.245-8.829-8.246-13.23c-1.764-2.588-3.255-5.409-5.103-7.918
	c-1.398-1.898-4.512-5.129-4.975-7.515c-0.108-0.554-0.432-0.872-0.826-1.006c-1.744-3.82-2.234-8.157-3.394-12.156
	c-1.421-4.901-0.437-12.367,1.735-16.933c0.158-0.331,0.19-0.654,0.135-0.949c2.205-5.683,5.61-10.928,10.134-15.019
	c0.145-0.031,0.292-0.078,0.443-0.161c5.056-2.793,9.061-6.832,14.49-9.125c5.459-2.306,9.941-6.725,15.07-9.729
	c5.479-3.21,10.833-6.369,16.045-10.022c2.562-1.795,5.685-3.066,8.353-4.8c1.083-0.704,1.959-1.572,2.833-2.451
	c0.687-0.356,1.258-0.803,1.716-1.321c1.1-0.57,2.141-1.28,3.176-2.13c3.795-2.023,8.429-4.297,8.569-8.587
	c0.202-6.193-3.956-10.687-7.067-15.679c-0.022-0.035-0.048-0.06-0.071-0.092c-0.026-0.173-0.079-0.351-0.179-0.533
	c-3.553-6.418-8.043-12.276-11.534-18.709c-0.019-0.176-0.063-0.357-0.153-0.541c-1.714-3.498-4.218-6.449-6.254-9.762
	c-1.959-3.187-3.836-6.681-5.934-9.738c-0.078-0.114-0.166-0.208-0.258-0.291c-0.035-0.069-0.068-0.139-0.117-0.209
	c-2.985-4.272-5.513-8.937-7.914-13.563c-1.438-2.771-4.124-4.244-5.372-7.243c-0.756-1.816-1.842-3.431-2.903-5.065
	c-0.843-1.73-1.532-3.518-2.811-5.054c-0.03-0.167-0.085-0.338-0.187-0.512c-8.209-14.051-23.756,2.902-32.615,6.899
	c-0.168,0.076-0.298,0.172-0.408,0.276c-3.187,2.295-6.594,4.12-9.956,6.137c-1.447,0.868-2.827,1.849-4.198,2.83
	c-1.413,1.011-3.065,1.37-4.511,2.29c-0.16,0.04-0.323,0.105-0.489,0.218c-5.559,3.794-11.22,7.395-16.75,11.25
	c-2.729,1.902-5.822,3.346-8.563,5.313c-1.669,1.198-3.408,1.697-4.67,3.294c-0.416,0.026-0.813,0.251-1.056,0.765
	c-0.211,0.447-0.506,0.845-0.832,1.222c-0.889,0.702-1.761,1.419-2.604,2.161c-0.887,0.595-1.788,1.159-2.537,1.772
	c-2.133,1.744-3.805,3.853-5.907,5.619c-2.192,1.842-4.637,5.032-6.088,8.082c-5.114,4.441-8.349,11.266-10.8,17.537
	c-0.197,0.164-0.362,0.382-0.466,0.675c-1.017,2.887-2.6,5.515-3.625,8.417c-0.482,1.365-1.055,2.654-1.421,4.06
	c-0.336,1.291-0.274,2.515-0.632,3.763c-0.097,0.133-0.182,0.284-0.238,0.468c-0.631,2.059-1.089,4.138-1.667,6.214
	c-0.686,2.465-0.587,4.835-1,7.328c-0.054,0.325-0.008,0.616,0.098,0.869c-0.446,1.8-1.046,3.562-1.556,5.34
	c-0.749,2.61-0.153,5.339-0.522,7.962c-0.014,0.065-0.027,0.131-0.031,0.203c-0.025,0.153-0.039,0.307-0.071,0.46
	c-0.089,0.421-0.009,0.783,0.165,1.078c0.053,0.983,0.054,1.974,0.038,2.967c-0.653,4.468-0.771,9.186-0.461,13.771
	c-0.255,2.094-0.498,4.189-0.254,6.249c0.051,0.431,0.25,0.76,0.517,0.997c0.324,0.984,0.146,2.469,0.271,3.355
	c0.265,1.87,0.642,3.825,1.192,5.646c-0.07,3.682-0.181,7.543,0.604,11.16c0,0.003-0.001,0.005-0.001,0.008
	c0.052,3.397,1.314,6.905,2.296,10.204c0.171,1.971,0.5,3.934,0.79,5.89c0.303,2.049,1.053,3.95,1.468,5.971
	c0.019,0.094,0.049,0.177,0.08,0.258c0.259,6.279,2.578,12.54,4.841,18.314c2.434,6.212,4.386,12.724,7.201,18.776
	c-0.029,0.209-0.01,0.44,0.085,0.693c2.611,6.973,5.435,13.827,8.14,20.76c1.153,2.955,2.921,5.731,4.323,8.577
	c1.347,2.735,1.883,5.868,3.839,8.242c0.02,0.024,0.041,0.039,0.062,0.061c1.4,5.053,5.149,9.041,7.285,13.886
	c2.721,6.174,6.44,12.294,10.898,17.355c-0.009,0.189,0.027,0.396,0.12,0.619c4.719,11.263,12.986,20.378,19.976,30.246
	c0.036,0.284,0.163,0.571,0.41,0.832c2.176,2.302,4.436,4.475,6.099,7.196c1.448,2.37,3.413,4.591,4.583,7.083
	c0.167,0.355,0.407,0.569,0.675,0.68c1.363,2.631,3.855,4.964,5.852,6.975c1.494,1.504,2.364,3.291,3.96,4.701
	c1.643,1.451,3.059,2.946,4.497,4.614c1.707,1.98,3.811,3.432,5.182,5.696c1.197,1.977,2.661,3.671,4.283,5.306
	c3.6,3.627,8.114,5.519,11.437,9.545c0.06,0.212,0.169,0.423,0.348,0.62c3.682,4.055,6.967,8.797,11.887,11.401
	c6.458,3.418,12.429,7.903,18.25,12.281c5.298,3.984,10.814,7.64,16.551,10.997c6.485,3.795,13.596,5.782,20.292,9.065
	c0.03,0.016,0.063,0.03,0.094,0.044c0.021,0.01,0.042,0.019,0.063,0.029c0.139,0.068,0.275,0.108,0.41,0.135
	c2.492,0.719,4.792,2.039,7.249,2.882c3.412,1.171,6.769,2.178,10.084,3.633c5.659,2.484,12.468,3.61,18.567,4.368
	c12.928,1.607,26.228,1.011,38.847-2.533c0.1-0.028,0.188-0.066,0.272-0.107c0.255,0.082,0.557,0.075,0.894-0.06
	c6.788-2.714,13.822-3.805,20.162-7.432c0.337,0.099,0.719,0.079,1.113-0.136c8.828-4.82,17.066-10.972,25.599-16.35
	c3.735-2.354,7.33-4.894,10.904-7.504c3.207-2.342,6.961-3.715,10.125-6.09c0.318,0.071,0.674,0.022,1.038-0.222
	c2.086-1.397,4.128-2.722,6.238-3.929c0.563-0.212,1.133-0.499,1.707-0.891c0.065-0.044,0.12-0.097,0.183-0.142
	c1.423-0.746,2.886-1.439,4.43-2.054c2.788-1.112,5.121-3.121,6.788-5.559C428.605,574.787,423.271,569.091,420.506,564.27z
	 M390.493,578.955c-4.704,2.707-9.224,5.591-13.75,8.583c-8.29,5.482-17.48,9.334-25.5,15.25c-0.273,0.201-0.446,0.45-0.545,0.714
	c-3.279,2.161-6.993,3.986-10.865,5.439c-3.216,0.965-6.496,1.464-9.685,2.729c-1.448,0.276-2.892,0.514-4.314,0.664
	c-3.483,0.368-6.835,1.087-10.307,1.424c-4.014-0.043-7.98-0.091-11.934-0.188c-4.336-0.298-8.849-1.62-13.099-2.495
	c-5.459-1.123-10.744-2.695-15.736-5.203c-0.388-0.195-0.762-0.208-1.094-0.113c-7.661-2.688-15.496-5.981-22.906-9.221
	c-3.382-1.479-6.264-3.997-9.314-6.027c-2.834-1.887-6.43-3.491-8.951-5.873c-0.093-0.31-0.321-0.589-0.735-0.766
	c-0.011-0.005-0.02-0.01-0.031-0.015c-0.026-0.029-0.057-0.055-0.082-0.084c-0.33-0.38-0.716-0.514-1.086-0.484
	c-2.648-1.43-4.779-3.542-7.172-5.387c-1.184-0.913-2.399-1.768-3.544-2.717c-0.101-0.273-0.289-0.528-0.585-0.73
	c-0.273-0.186-0.552-0.364-0.829-0.545c-1.215-1.206-2.168-2.438-3.755-3.205c-0.347-0.168-0.684-0.194-0.989-0.129
	c-0.271-0.228-0.552-0.444-0.811-0.691c-2.1-2.006-4.145-3.928-6.397-5.779c-0.14-0.115-0.287-0.192-0.436-0.252
	c-1.268-1.384-2.439-2.875-3.58-4.156c-1.43-1.606-2.853-3.196-4.247-4.833c-1.546-1.816-3.826-2.619-5.441-4.386
	c-3.206-3.507-6.875-6.678-9.612-10.579c-2.154-3.07-4.177-5.948-6.721-8.704c-0.959-2.753-3.166-4.719-4.753-7.125
	c-2.163-3.278-4.869-5.828-7.293-8.882c-0.061-0.077-0.126-0.139-0.191-0.197c-2.31-3.587-4.946-6.959-7.293-10.526
	c-1.401-2.13-2.517-4.424-3.942-6.531c-1.199-1.773-2.904-3.081-3.839-5.025c-0.143-0.296-0.338-0.491-0.556-0.614
	c-1.391-2.183-3.24-4-4.709-6.14c-1.696-2.471-3.36-5.457-4.329-8.306c-0.011-0.132-0.034-0.268-0.088-0.414
	c-0.931-2.527-2.27-3.972-3.781-6.198c-1.609-2.37-2.249-4.683-4.247-6.847c-2.64-2.86-3.836-6.64-5.54-10.064
	c-1.149-2.308-3.359-5.447-4.076-8.142c0.071-0.244,0.077-0.522-0.022-0.833c-1.421-4.459-3.921-9.246-5.943-13.481
	c-1.319-2.763-3.052-5.544-4.512-8.423c-0.022-0.258-0.052-0.516-0.093-0.774c-0.23-1.481-0.811-2.83-1.389-4.202
	c-0.296-0.702-0.563-1.41-0.797-2.135c-0.019-0.081-0.034-0.144-0.05-0.207c0.003-0.154-0.013-0.308,0.004-0.462
	c0.095-1.648-0.478-3.181-1.443-4.43c-1.672-4.103-3.133-8.228-4.277-12.552c-1.225-4.63-3.819-9.442-4.196-14.268
	c-0.055-0.705-0.502-1.133-1.03-1.32c-0.046-0.169-0.118-0.327-0.217-0.47c-0.003-0.063-0.003-0.126-0.015-0.192
	c-0.168-0.97-0.389-1.745-0.875-2.593c-0.43-0.751-0.32-2.906-0.542-3.866c-0.575-2.49-1.338-5.171-1.538-7.749
	c-0.016-0.428-0.026-0.857-0.002-1.285c0.053-0.948-0.455-1.78-0.677-2.675c-0.331-1.331-0.355-2.735-0.772-4.03
	c0-0.011,0.002-0.019,0.001-0.03c-0.153-2.521-0.973-4.915-0.989-7.448c-0.02-3.073-0.542-6.174-0.71-9.271
	c0.201-0.235,0.33-0.547,0.324-0.948c-0.057-4.102-0.288-8.173-0.287-12.278c0.037-0.108,0.064-0.223,0.079-0.347
	c0.562-4.773,0.662-9.582,1.208-14.333c0.015-0.132,0.012-0.254-0.001-0.368c0.912-4.089,1.171-8.294,1.781-12.442
	c0.019-0.128,0.021-0.25,0.012-0.368c0.691-1.605,1.165-3.222,1.654-4.965c0.609-2.169,1.485-4.432,1.814-6.697
	c0.087-0.114,0.167-0.238,0.227-0.386c0.885-2.185,1.588-4.548,2.745-6.605c1.134-2.018,1.827-4.304,2.968-6.31
	c0.303-0.163,0.561-0.431,0.704-0.835c0.598-1.685,1.775-3.256,2.717-4.779c0.496-0.802,1.087-1.552,1.632-2.321
	c0.476-0.671,0.71-1.444,1.349-1.988c0.26-0.221,0.403-0.47,0.462-0.721c0.828-1.02,1.865-1.901,2.66-2.949
	c1.264-1.668,2.479-3.091,4.086-4.413c1.299-1.069,2.531-2.518,3.781-3.698c1.348-1.272,2.981-2.291,4.385-3.51
	c0.072-0.062,0.128-0.128,0.183-0.194c5.128-3.411,10.821-6.113,15.818-9.706c0.224-0.02,0.458-0.102,0.696-0.282
	c3.603-2.733,7.513-4.939,11.512-7.015c0.029,0.024,0.065,0.039,0.096,0.061c0.256-0.064,0.527-0.128,0.806-0.197
	c0.458-0.232,0.936-0.423,1.421-0.603c0.57-0.35,1.139-0.701,1.71-1.051c0.343-0.358,0.687-0.717,1.05-1.054
	c1.897-1.762,4.406-2.58,6.333-4.25c2.57-2.227,5.921-3.966,8.863-5.64c2.811-1.599,5.365-3.898,8.334-5.202
	c0.56,1.899,1.785,3.627,2.614,5.414c1.578,3.399,4.042,6.472,5.691,9.915c2.766,5.776,7.09,11.774,11.232,16.697
	c0.004,0.01,0.004,0.019,0.008,0.03c0.865,2.195,2.426,4.087,3.651,6.108c1.896,3.128,3.58,6.351,5.656,9.369
	c3.643,5.294,6.485,11.274,10.467,16.344c-0.054,0.05-0.108,0.096-0.16,0.158c-0.962,1.16-3.192,2.295-4.588,2.864
	c-0.917,0.374-1.877,0.593-2.788,1.005c-1.089,0.493-2.028,1.409-3.008,2.083c-0.199,0.137-0.348,0.297-0.456,0.471
	c-1.136,1.375-3.363,2.126-4.836,3.07c-2.184,1.4-4.475,2.648-6.736,3.917c-4.433,2.487-8.637,5.197-13.217,7.432
	c-4.512,2.202-8.504,4.947-12.631,7.776c-3.292,2.257-7.416,4.531-10.137,7.443c-0.043,0.046-0.073,0.095-0.109,0.142
	c-0.908,0.422-1.544,1.107-2.157,1.905c-1.464,1.905-3.263,3.395-4.846,5.183c-3.539,3.995-6.255,9-8.456,13.824
	c-0.041,0.09-0.068,0.179-0.092,0.268c-4.746,9.696-7.492,22.193-4.393,32.888c0.031,0.107,0.072,0.203,0.117,0.293
	c0.844,6.089,2.199,12.34,5.064,17.802c3.828,7.297,8.589,14.267,13.303,21.013c0.226,0.324,0.518,0.512,0.826,0.601
	c2.874,3.314,4.789,8.049,6.617,11.967c2.312,4.955,5.667,9.405,8.557,14.015c0.146,0.233,0.326,0.395,0.52,0.51
	c2.255,2.208,3.426,5.788,5.084,8.449c2.497,4.008,5.157,7.906,7.673,11.9c2.098,3.33,4.165,6.807,6.053,10.265
	c1.039,1.903,2.221,3.378,3.503,5.127c0.831,1.133,0.986,2.73,1.833,3.917c0.086,0.121,0.184,0.218,0.286,0.303
	c0.126,0.191,0.312,0.361,0.586,0.485c2.185,0.991,3.026,4.169,4.15,6.084c1.703,2.899,4.024,5.378,5.724,8.297
	c2.925,5.024,5.912,10.262,8.551,15.441c-0.02,0.356,0.127,0.722,0.521,1.027c2.641,2.043,3.443,6.674,5.298,9.505
	c1.767,2.698,3.687,5.215,5.785,7.662c4.629,5.397,10.019,9.709,16.47,12.818c3.286,1.583,6.089,3.735,9.608,4.818
	c3.571,1.099,7.076,2.635,10.75,3.333c6.205,1.179,12.538,2.532,18.714,0.833c0.117-0.032,0.224-0.074,0.32-0.124
	c6.541-0.044,11.216-1.967,17.039-4.765c4.544-2.183,8.91-4.617,12.827-7.729c0.668-0.377,1.305-0.83,1.964-1.271
	c1.569-1.047,3.119-2.059,4.552-3.28c6.534-3.297,12.84-7.037,19.217-10.733c1.005-0.582,2.016-1.146,3.031-1.7
	c0.967-0.713,1.971-1.395,2.997-2.083c2.15-1.442,4.174-2.923,6.483-3.978c0.116-0.12,0.239-0.239,0.355-0.359
	c0.783-0.813,1.512-1.707,2.557-2.173c0.508-0.536,1.039-1.044,1.632-1.476c0.808,2.256,2.263,4.223,3.42,6.405
	c2.187,4.126,4.933,7.952,7.526,11.824c5.409,8.077,10.59,16.423,15.135,25.001c0.049,0.093,0.106,0.173,0.165,0.248
	c0.119,0.553,0.338,1.028,0.83,1.524c1.728,1.743,2.701,4.024,4.182,5.972c1.707,2.245,3.327,4.555,5.031,6.805
	c1.367,1.806,2.044,3.816,2.934,5.837C398.283,574.964,394.28,576.775,390.493,578.955z"/>
<path fill="#FFF4E0" d="M408.275,373.086c-1.04-5.381-2.908-10.714-3.821-16.107c0.085-0.253,0.096-0.547-0.007-0.877
	c-1.04-3.335-1.594-6.752-3.003-9.976c-1.739-3.978-4.686-7.711-6.199-11.782c-0.008-0.154-0.038-0.317-0.111-0.492
	c-4.065-9.705-12.245-16.823-18.089-25.421c-0.302-0.444-0.723-0.641-1.149-0.668c-4.553-4.303-9.322-8.016-14.444-11.706
	c-3.089-2.226-6.265-4.485-9.492-6.509c-2.708-1.698-5.425-2.495-8.141-3.905c-0.366-0.19-0.721-0.215-1.04-0.138
	c-1.299-0.691-2.582-1.161-4.068-1.638c-2.526-0.811-4.722-2.149-7.149-3.107c-4.613-1.822-10.168-2.475-15.038-3.518
	c-6.31-1.351-14.236-3.463-19.614,0.751c-0.388-0.048-0.801,0.07-1.158,0.447c-5.84,6.172-2.522,14.509,4.802,17.067
	c2.236,0.781,4.806,0.621,7.11,0.996c3.307,0.538,6.57,1.125,9.81,1.989c6.825,1.821,13.776,3.19,20.251,6.108
	c2.476,1.184,4.34,2.984,6.462,4.686c1.812,1.453,3.978,2.221,5.752,3.775c3.084,2.701,6.226,5.531,9.438,8.063
	c0.245,0.193,0.507,0.291,0.767,0.328c0.017,0.016,0.028,0.032,0.045,0.047c1.255,1.079,2.164,2.441,3.313,3.625
	c1.154,1.188,2.362,2.023,3.39,3.384c0.91,1.203,1.961,2.285,2.841,3.511c1.1,1.532,1.699,3.392,2.761,4.973
	c0.026,0.187,0.091,0.381,0.21,0.578c0.76,1.259,1.621,2.361,2.561,3.485c1.678,2.008,2.431,4.722,3.728,6.984
	c2.291,3.994,4.487,8.453,6.063,12.819c-0.072,0.219-0.103,0.462-0.065,0.729c1.251,8.955,2.165,17.974,3.259,26.976
	c0.005,0.038,0.017,0.07,0.024,0.106c-0.007,0.048-0.02,0.093-0.024,0.144c-0.354,5.446-2.523,10.383-2.836,15.794
	c-0.281,4.853-1.827,9.516-2.039,14.393c-0.008,0.195,0.021,0.365,0.069,0.52c0.006,0.102,0.019,0.207,0.047,0.316
	c0.692,2.76,1.74,6.164,4.314,7.834c2.177,1.412,5.114,0.88,7.527,0.379c2.606-0.542,4.607-2.173,6.102-4.283
	c1.858-2.622,1.626-6.487,3.539-9.123c0.395-0.136,0.725-0.45,0.848-0.994c0.001-0.006,0.002-0.012,0.004-0.018
	c0.229-0.331,0.28-0.688,0.214-1.021c0.8-3.648,1.498-7.312,2.161-10.991c0.8-4.443,0.191-8.973,1.029-13.466
	c0.129-0.211,0.211-0.467,0.209-0.778C409.406,382.405,409.224,378,408.275,373.086z"/>
<path fill="#FFF4E0" d="M477.289,378.671c0.023-5.367-1.296-10.416-2.092-15.695c-0.041-0.274-0.141-0.486-0.272-0.653
	c-0.453-4.914-1.516-9.65-2.311-14.514c-0.026-0.16-0.076-0.294-0.135-0.417c-0.079-0.698-0.159-1.395-0.206-2.095
	c-0.165-0.653-0.378-1.313-0.584-1.916c-0.206-0.604-0.46-1.204-0.504-1.842c-0.752-2.052-1.216-4.239-1.897-6.294
	c-0.651-1.967-0.673-4.047-1.549-5.924c0.022-0.273-0.044-0.569-0.234-0.87c-1.087-1.716-1.571-4.004-2.349-5.892
	c-0.823-1.999-2.166-4.054-2.75-6.125c-0.054-0.19-0.137-0.346-0.234-0.483c0,0,0,0,0-0.001c-1.366-2.841-2.38-5.533-3.999-8.242
	c-1.212-2.027-1.298-5.034-3.023-6.76c-0.038-0.136-0.094-0.275-0.185-0.415c-1.135-1.753-2.38-3.518-3.342-5.371
	c-0.845-1.627-2.32-3.126-2.965-4.813c-0.046-0.121-0.104-0.228-0.168-0.325c-0.001-0.211-0.046-0.433-0.149-0.658
	c-2.925-6.393-8.865-10.889-12.245-16.943c-0.049-0.129-0.113-0.259-0.213-0.391c-2.14-2.794-4.592-5.298-6.732-8.072
	c-0.828-1.074-1.926-1.837-2.753-2.898c-0.718-0.923-2.711-2.207-2.948-3.338c-0.12-0.571-0.468-0.893-0.883-1.018
	c-1.95-2.463-4.096-3.741-6.503-5.772c-2.833-2.39-4.431-5.677-7.72-7.516c-4.146-2.317-7.547-5.6-11.51-8.187
	c-4.317-2.818-8.94-5.443-13.574-7.696c-0.174-0.085-0.344-0.126-0.511-0.147c-1.737-1.377-3.401-2.398-5.533-3.072
	c-3.026-0.957-5.628-2.855-8.608-3.883c-2.713-0.936-5.057-2.29-7.832-3.091c-3.15-0.91-6.326-1.725-9.475-2.636
	c-1.99-0.575-3.962-1.168-5.93-1.758c-0.633-0.405-1.343-0.691-2.125-0.808c-0.44-0.066-0.893-0.145-1.346-0.224
	c-3.743-1.101-7.5-2.147-11.368-2.984c-5.45-1.18-12.237-2.479-17.679-0.882c-0.021,0.006-0.036,0.016-0.056,0.023
	c-0.605-0.236-1.309-0.101-1.674,0.667c-0.791,1.664-2.714,2.333-3.5,4.167c-0.847,1.977-1.388,4.022-1.224,6.178
	c0.263,3.463,2.463,6.179,5.521,7.561c0.226,0.402,0.642,0.692,1.249,0.685c3.806-0.046,8.48,1.454,12.226,2.086
	c4.388,0.741,8.755,1.607,13.105,2.551c4.201,0.912,8.928,3.026,12.875,4.682c4.542,1.905,9.216,2.993,13.536,5.393
	c0.4,0.222,0.787,0.242,1.127,0.139c2.754,1.256,5.41,3.599,7.956,5.153c2.948,1.8,5.96,3.496,8.881,5.337
	c6.651,4.191,13.032,9.438,18.982,14.553c0.203,0.174,0.418,0.268,0.635,0.322c0.841,1.029,2.433,1.035,3.402,2.016
	c0.879,0.89,1.596,1.947,2.482,2.839c0.918,0.925,2.066,1.49,2.898,2.531c0.122,0.152,0.253,0.258,0.389,0.34
	c1.891,1.679,3.442,3.619,4.8,5.779c1.476,2.348,3.723,4.03,5.327,6.202c0.03,0.041,0.066,0.072,0.098,0.109
	c0.064,0.138,0.145,0.274,0.261,0.403c1.336,1.48,2.203,3.349,3.594,4.77c1.806,1.846,3.113,4.036,4.546,6.176
	c0.167,0.249,0.373,0.415,0.594,0.525c1.795,2.816,3.27,5.875,5.075,8.703c0.144,0.225,0.293,0.457,0.442,0.689
	c0.949,2.141,1.918,4.272,3.125,6.278c0.289,0.481,0.608,0.903,0.946,1.28c0,0,0,0,0,0c0.436,1.927,1.388,3.754,2.16,5.567
	c0.441,1.036,1.059,1.968,1.626,2.934c0.768,1.307,1.146,2.889,1.714,4.29c0.014,0.033,0.033,0.06,0.048,0.091
	c0.152,0.824,0.382,1.629,0.631,2.429c0.14,0.851,0.39,1.704,0.75,2.533c0.104,0.238,0.196,0.485,0.297,0.725
	c0.137,0.441,0.275,0.881,0.388,1.328c0.649,2.566,1.422,5.269,2.261,7.768c0.069,0.205,0.169,0.372,0.287,0.513
	c0.675,2.012,0.732,4.284,1.15,6.352c0.623,3.078,2.478,5.872,2.592,9.07c0.012,0.337,0.117,0.612,0.276,0.831
	c1.18,6.392,2.222,12.797,2.294,19.303c-0.136,0.218-0.214,0.49-0.195,0.824c0.118,2.061,0.464,4.029,0.37,6.105
	c-0.085,1.886-0.162,3.771-0.189,5.659c-0.113,0.203-0.184,0.445-0.181,0.736c0.023,2.073-0.305,4.011-0.499,6.063
	c-0.254,2.685-0.032,5.207-0.656,7.872c-0.076,0.326-0.048,0.616,0.046,0.869c-0.192,1.762-0.773,3.578-1.05,5.319
	c-0.367,2.305-1.111,4.502-1.341,6.835c-0.017,0.174-0.001,0.326,0.03,0.468c-0.255,2.186-0.751,4.885-1.617,6.899
	c-0.858,1.997-0.912,4.134-1.36,6.233c-0.054,0.252-0.045,0.484,0.005,0.693c-0.445,4.787,2.762,7.38,7.298,8.625
	c5.776,1.584,10.541-1.162,12.465-6.812c0.027-0.079,0.039-0.154,0.053-0.229c0.379-0.145,0.706-0.444,0.863-0.938
	c0.819-2.573,1.691-4.938,1.637-7.69c-0.035-1.775,0.618-3.428,1.186-5.071c0.538-1.557,0.624-3.358,0.908-4.986
	c0.073-0.112,0.139-0.234,0.186-0.378c2.179-6.585,1.584-14.244,2.036-21.154c0.165-0.225,0.268-0.514,0.268-0.869
	c0-5.216-0.486-10.436,0.167-15.625C477.41,379.098,477.371,378.867,477.289,378.671z"/>
<path fill="#FFF4E0" d="M538.807,381.749c-0.096-3.074-0.075-6.113-0.025-9.186c0.007-0.413-0.129-0.732-0.34-0.968
	c-1.084-5.256-1.728-10.788-1.66-16.126c0.001-0.055-0.009-0.103-0.013-0.155c0.035-0.143,0.056-0.295,0.045-0.47
	c-0.322-4.858-2.151-9.475-2.25-14.375c-0.008-0.381-0.133-0.684-0.326-0.915c-1.347-3.896-2.696-7.922-3.278-11.997
	c0.025-0.188,0.016-0.391-0.044-0.612c-0.651-2.396-1.402-4.795-1.969-7.219c-0.584-2.496-1.99-4.897-2.331-7.441
	c-0.004-0.153-0.034-0.31-0.1-0.472c-0.045-0.133-0.109-0.25-0.182-0.359c-1.189-1.98-1.386-4.422-2.445-6.493
	c-0.595-1.163-0.941-2.228-1.221-3.498c-0.174-0.789-0.628-1.538-0.931-2.309c0.112-0.341,0.115-0.729-0.066-1.13
	c-0.903-2.002-1.798-4.005-2.719-6c-0.801-1.736-1.911-4.072-2.355-6.011c0.016-0.245-0.021-0.504-0.145-0.77
	c-0.411-0.883-0.816-1.761-1.421-2.532c-0.909-1.158-1.095-2.382-1.753-3.637c-1.256-2.394-4.031-4.985-4.121-7.825
	c-0.013-0.418-0.169-0.74-0.397-0.977c-0.712-1.627-1.893-2.867-2.657-4.463c-0.56-1.171-1.33-2.145-2.088-3.192
	c-0.601-0.831-0.949-1.762-1.59-2.541c-0.032-0.1-0.073-0.201-0.129-0.303c-0.722-1.318-1.628-2.48-2.375-3.781
	c-0.653-1.137-1.617-2.261-2.162-3.459c-0.02-0.215-0.093-0.439-0.244-0.666c-1.735-2.602-3.722-4.867-5.625-7.344
	c-1.054-1.372-2.061-2.903-2.969-4.375c-0.516-0.837-1.924-1.396-2.193-2.267c-0.06-0.194-0.15-0.352-0.254-0.49
	c-0.052-0.219-0.151-0.436-0.319-0.641c-0.736-0.899-1.407-1.496-2.315-2.219c-0.738-0.587-1.168-1.904-1.739-2.661
	c-1.477-1.959-3.531-3.715-4.743-5.847c-0.165-0.29-0.38-0.48-0.616-0.595c-1.545-1.496-2.767-3.17-4.115-4.841
	c-1.152-1.427-2.414-2.666-3.685-3.944c-0.316-0.413-0.665-0.783-1.04-1.117c-0.855-1.052-2.088-1.654-3.031-2.619
	c-1.113-1.14-2.321-2.311-3.253-3.613c-0.074-0.212-0.208-0.42-0.433-0.607c-2.7-2.246-5.418-4.471-8.366-6.391
	c-3.437-2.238-6.164-5.139-9.813-7.156c-0.023-0.013-0.045-0.018-0.067-0.029c-0.082-0.181-0.213-0.357-0.41-0.518
	c-1.746-1.417-3.342-2.904-5.313-4.001c-1.186-0.66-2.279-1.593-3.412-2.346c-1.001-0.665-2.477-1.356-3.348-2.17
	c-0.111-0.185-0.266-0.356-0.48-0.499c-2.545-1.689-4.883-3.634-7.508-5.232c-3.339-2.034-7.806-2.716-10.564-5.658
	c-0.065-0.07-0.134-0.124-0.203-0.177c-0.083-0.087-0.176-0.171-0.289-0.245c-6.176-4.087-13.746-5.801-20.057-9.724
	c-0.151-0.162-0.342-0.3-0.583-0.396c-3.611-1.427-7.311-3.108-11.13-4.033c-0.311-0.151-0.63-0.292-0.962-0.409
	c-0.697-0.246-1.394-0.433-2.093-0.584c-8.325-3.808-18.02-4.495-26.627-7.443c-0.214-0.073-0.412-0.095-0.595-0.081
	c-7.832-2.289-27.856-8.56-29.906,4.754c-0.014,0.093-0.015,0.182-0.015,0.27c-0.113,0.199-0.187,0.433-0.195,0.712
	c-0.187,6.841,2.369,9.755,8.976,10.821c5.824,0.94,11.759,1.582,17.57,2.74c0.663,0.235,1.361,0.386,2.078,0.443
	c1.659,0.372,3.308,0.781,4.935,1.276c0.118,0.036,0.232,0.057,0.341,0.067c4.739,2.364,10.2,3.334,15.232,4.939
	c5.549,1.769,11.326,3.834,16.36,6.802c0.136,0.08,0.27,0.129,0.403,0.164c4.984,2.737,10.327,4.806,15.347,7.539
	c3.961,2.156,7.801,4.649,11.875,6.505c0.149,0.068,0.294,0.103,0.438,0.125c1.272,1.334,3.073,2.987,4.718,3.474
	c3.556,1.053,6.404,3.576,9.112,6.063c4.214,3.869,9.311,6.577,13.429,10.562c0.139,0.134,0.285,0.225,0.435,0.295
	c4.705,5.982,11.173,10.514,16.803,15.549c0.117,0.9,0.499,1.637,1.137,2.405c1.408,1.695,3.092,3.145,4.542,4.835
	c2.997,3.491,6.163,6.891,8.932,10.53c0.082,0.108,0.173,0.197,0.269,0.276c0.017,0.032,0.039,0.063,0.057,0.096
	c0.133,0.258,0.279,0.509,0.443,0.75c1.184,2,2.717,3.906,4.085,5.741c1.828,2.454,3.475,4.657,4.897,7.387
	c0.093,0.179,0.208,0.315,0.332,0.427c0.801,2.25,2.967,4.302,4.304,6.215c1.8,2.575,3.999,6.095,4.963,9.083
	c0.087,0.271,0.229,0.479,0.399,0.64c1.409,2.973,3.341,5.639,4.711,8.677c1.374,3.047,2.798,6.183,4.375,9.125
	c0.061,0.114,0.13,0.211,0.204,0.297c2.194,5.189,3.564,10.588,5.353,15.928c0.008,0.024,0.02,0.042,0.029,0.065
	c0.031,0.097,0.069,0.195,0.122,0.294c2.532,4.717,2.722,10.696,4.724,15.683c0.026,0.065,0.061,0.119,0.092,0.177
	c0.237,2.052,0.608,4.095,1.05,6.111c0.495,2.259,0.779,4.56,1.316,6.795c0.058,0.242,0.157,0.438,0.284,0.594
	c0,0.017-0.004,0.031-0.004,0.049c0.116,7.33,2.607,14.583,3.375,21.875c0,0.004,0.002,0.008,0.003,0.012
	c0.033,6.165,0.345,12.323,0.372,18.488c0.001,0.138,0.02,0.263,0.049,0.381c-0.006,0.079-0.013,0.157-0.007,0.244
	c0.224,3.169-0.59,6.312-0.781,9.479c-0.236,3.917-0.072,7.889-0.057,11.817c-0.828,1.663-1.029,3.88-1.149,5.642
	c-0.224,3.311-0.622,6.604-0.462,9.919c-0.227,1.658-0.397,3.317-0.894,4.932c-0.529,1.717-1.286,3.433-1.453,5.228
	c-0.047,0.109-0.087,0.229-0.11,0.365c-0.284,1.699-0.399,3.427-1.13,4.985c-0.739,1.577-1.259,3.235-1.361,4.976
	c-0.025,0.42,0.103,0.742,0.311,0.979c0.159,2.533,0.832,5.053,2.144,7.215c0.167,0.276,0.381,0.456,0.613,0.57
	c0.244,0.326,0.53,0.624,0.893,0.859c0.94,0.612,1.831,1.294,2.873,1.727c1.278,0.531,2.474,0.305,3.799,0.501
	c0.479,0.071,0.887-0.062,1.201-0.304c0.012-0.004,0.022-0.005,0.034-0.009c2.135-0.798,4.232-1.609,5.781-3.354
	c0.768-0.866,1.226-2,1.65-3.061c0.517-1.296,0.927-3.38,1.794-4.471c0.17-0.214,0.267-0.442,0.314-0.669
	c0.176-0.172,0.315-0.402,0.384-0.711c0.381-1.712,0.854-3.279,1.154-5.016c0.341-1.974,0.767-3.924,1.138-5.888
	c0.03-0.02,0.055-0.047,0.084-0.069c0.046-0.257,0.089-0.515,0.133-0.778c0.088-0.519,0.325-1.001,0.388-1.523
	c0.012-0.102,0.054-0.182,0.107-0.251c0.121-1.735,0.347-3.459,0.463-5.197c0.108-1.621-0.101-3.073,0.514-4.636
	c0.001-0.017-0.005-0.031-0.003-0.048c0.082-0.606,0.405-1.105,0.563-1.688c0.172-0.636,0.29-1.274,0.357-1.93
	c0.009-0.085,0.036-0.157,0.073-0.219c0.209-2.913,0.19-5.862,0.731-8.705c0.302-0.237,0.494-0.613,0.446-1.138
	c-0.018-0.195-0.028-0.394-0.044-0.59c0.091-0.362,0.053-0.679-0.071-0.945c-0.347-5.113-0.122-10.417,0.557-15.475
	c0.174-0.228,0.282-0.526,0.277-0.896c-0.015-1.214,0.306-2.407,0.293-3.594C539.245,384.476,538.852,383.191,538.807,381.749z"/>
</svg>
