<?xml version="1.0" encoding="utf-8"?>
<!-- Generator: Adobe Illustrator 17.0.0, SVG Export Plug-In . SVG Version: 6.00 Build 0)  -->
<!DOCTYPE svg PUBLIC "-//W3C//DTD SVG 1.1//EN" "http://www.w3.org/Graphics/SVG/1.1/DTD/svg11.dtd">
<svg version="1.1" id="Layer_1" xmlns="http://www.w3.org/2000/svg" xmlns:xlink="http://www.w3.org/1999/xlink" x="0px" y="0px"
	 width="612px" height="792px" viewBox="0 0 612 792" enable-background="new 0 0 612 792" xml:space="preserve">
<g>
	<circle fill="#2197C8" cx="306" cy="400.459" r="295.242"/>
	<g>
		<path fill="#FFFFFF" d="M431.269,284.514c0.359-0.239,8.009-3.705,14.822,0.837c5.259,3.586,7.77,10.399,5.977,16.973
			c-16.615,78.413-33.349,156.825-49.964,235.238c-0.12,0.956-1.076,8.487-7.889,12.551c-4.542,2.749-10.28,3.108-15.3,0.956
			c-1.315-0.598-2.63-1.434-3.825-2.271c-39.445-29.644-78.891-59.287-118.336-89.051l137.58-123.715
			c0.359-0.598,1.913-2.51,1.315-3.705c-0.478-0.956-2.152-1.315-4.423-0.956c-2.152,0.239-4.184,1.076-5.977,2.271
			c-56.538,35.62-112.957,71.241-169.495,106.861l-76.859-23.309c-3.227-2.391-7.77-6.216-7.411-10.758
			c0.359-4.184,4.781-7.052,6.455-8.128C151.805,389.702,376.165,305.193,431.269,284.514z"/>
		<path fill="#A9C9DC" d="M256.753,459.867l-4.901,76.022c1.793-0.12,4.423-0.359,7.411-1.673c3.586-1.554,5.977-3.825,7.291-5.259
			c11.834-11.714,23.667-23.428,35.501-35.142L256.753,459.867z"/>
		<path fill="#C8DAEA" d="M251.733,535.888c-2.032,0-4.423-0.359-6.335-1.913c-2.271-1.912-2.988-4.662-3.108-5.379
			c-1.315-5.379-11.834-40.163-26.536-87.975l169.495-106.861c0.717-0.478,1.673-1.076,2.988-1.554
			c2.152-0.837,6.216-1.793,7.291-0.239c0.478,0.598,0.239,1.554,0.12,1.913c0,0-0.239,1.195-1.315,2.271
			c-1.434,1.434-59.048,53.191-137.58,123.715L251.733,535.888z"/>
	</g>
</g>
</svg>
